<svg aria-hidden="true" style="position:absolute;width:0;height:0" xmlns="http://www.w3.org/2000/svg" overflow="hidden"><defs><symbol id="icon-socket-io" viewBox="0 0 32 32"><path d="M24.3 2.3C20.7.1 16.1-.5 12 .5 5.7 2.1.8 7.7.1 14.1c-.8 6.1 2.3 12.4 7.5 15.5 5.2 3.2 12.1 3.1 17.2-.3 4.5-2.9 7.3-8.3 7.2-13.7-.1-5.3-3.1-10.5-7.7-13.3zm-7.4 27.3c-7.3.7-14.3-5.4-14.5-12.7C1.8 11 5.7 5.1 11.3 3.1c7.8-3.1 17.4 2.7 18.2 11 1.3 7.6-5 15.3-12.6 15.5z"/><path d="M12.1 15.2c3.5-2.9 6.9-5.8 10.5-8.6-1.9 2.9-3.8 5.7-5.7 8.6h-4.8zm3 1.6h4.8c-3.5 2.9-6.9 5.8-10.5 8.6 1.9-2.9 3.8-5.7 5.7-8.6z"/></symbol><symbol id="icon-Excel" viewBox="0 0 32 32"><path d="M32 24.3V5.4c0-.6 0-1.3-.3-1.8-.6-.4-1.2-.3-1.8-.3H19V.4h-2.2C11.2 1.3 5.6 2.2 0 3.2v25.5c5.6 1 11.1 1.9 16.6 2.9h2.3v-3.3h11.3c.6 0 1.5-.1 1.7-.8.2-1.1.1-2.1.1-3.2zm-1.1 2.9h-12V25h2.9v-2.6h-2.9v-1.5h2.9v-2.6h-2.9v-1.5h2.9v-2.6h-2.9v-1.5h2.9v-2.6h-2.9V8.6h2.9V6h-2.9V3.9h12v23.3z"/><path d="M23.3 6.5h5.1v2.6h-5.1V6.5z"/><path fill="var(--color2, #fff)" d="M10.8 9.9c.8-.1 1.7-.1 2.5-.1-1 2-1.9 4-2.9 6 1 2 2 4 3 6.1-.9-.1-1.7-.1-2.6-.2-.6-1.5-1.4-3-1.8-4.6-.5 1.5-1.2 2.9-1.8 4.3-.8 0-1.6 0-2.4-.1.9-1.8 1.8-3.7 2.8-5.5-.9-1.9-1.8-3.8-2.6-5.6.8-.1 1.6-.1 2.4-.1.6 1.4 1.1 2.8 1.6 4.3.5-1.6 1.2-3 1.8-4.5z"/><path d="M23.3 10.5h5.1v2.6h-5.1v-2.6zm0 4h5.1v2.6h-5.1v-2.6zm0 4h5.1v2.6h-5.1v-2.6zm0 4h5.1v2.6h-5.1v-2.6z"/></symbol><symbol id="icon-git" viewBox="0 0 32 32"><path d="M6.505 12.179c-1.395 0-2.426.68-2.426 2.321 0 1.242.68 2.098 2.356 2.098 1.418 0 2.379-.832 2.379-2.145-.012-1.489-.867-2.274-2.309-2.274zM3.727 23.771c-.328.399-.656.832-.656 1.336 0 1.008 1.289 1.313 3.059 1.313 1.465 0 3.458-.105 3.458-1.465 0-.809-.961-.856-2.168-.938l-3.692-.246zm7.479-11.51c.457.586.938 1.395.938 2.555 0 2.801-2.204 4.442-5.38 4.442-.809 0-1.547-.105-1.993-.223l-.832 1.336 2.473.152c4.372.281 6.951.41 6.951 3.763 0 2.907-2.555 4.548-6.951 4.548-4.571 0-6.318-1.16-6.318-3.153 0-1.137.504-1.747 1.395-2.579-.832-.352-1.114-.985-1.114-1.664 0-.551.281-1.067.738-1.547s.961-.961 1.571-1.512c-1.242-.61-2.168-1.922-2.168-3.786 0-2.907 1.922-4.9 5.79-4.9 1.09 0 1.747.105 2.321.258h4.923v2.122l-2.344.188zm6.775-4.595c-1.442 0-2.274-.832-2.274-2.274s.832-2.227 2.274-2.227c1.465 0 2.297.785 2.297 2.227s-.832 2.274-2.297 2.274zm-3.27 15.179v-1.993L16 20.676c.352-.047.399-.129.399-.504v-7.431c0-.281-.07-.457-.328-.527l-1.36-.481.281-2.051h5.228v10.479c0 .41.023.457.399.504l1.289.176v1.993l-7.197.012zm17.195-.972c-1.09.527-2.673 1.008-4.114 1.008-3.001 0-4.138-1.207-4.138-4.067v-6.623c0-.152 0-.258-.199-.258h-1.77V9.694c2.227-.258 3.106-1.36 3.388-4.114h2.403v3.587c0 .176 0 .258.199.258h3.563v2.532h-3.763v6.037c0 1.489.352 2.075 1.723 2.075.703 0 1.442-.176 2.051-.399l.656 2.204z"/></symbol><symbol id="icon-GraphQL" viewBox="0 0 32 32"><path d="M3.445 23.548l12.812-22.19 1.15.664-12.812 22.19-1.15-.664z"/><path d="M3.184 21.776h25.624v1.328H3.184v-1.328z"/><path d="M3.692 22.522l.664-1.15 12.817 7.4-.664 1.15-12.817-7.4zM14.825 3.233l.664-1.15 12.817 7.4-.664 1.15-12.817-7.4z"/><path d="M3.69 9.479l12.817-7.4.664 1.15-12.817 7.4-.664-1.15z"/><path d="M14.595 2.024l1.15-.664 12.812 22.19-1.15.664-12.812-22.19zM4.2 8.6h1.328v14.8H4.2V8.6z"/><path d="M26.472 8.6H27.8v14.8h-1.328V8.6z"/><path d="M15.698 28.353l11.147-6.436.58 1.005-11.147 6.436-.58-1.005z"/><path d="M29.56 23.832c-.768 1.336-2.48 1.792-3.816 1.024s-1.792-2.48-1.024-3.816 2.48-1.792 3.816-1.024a2.784 2.784 0 0 1 1.024 3.816zM7.272 10.96c-.768 1.336-2.48 1.792-3.816 1.024s-1.792-2.48-1.024-3.816 2.48-1.792 3.816-1.024a2.798 2.798 0 0 1 1.024 3.816zM2.44 23.832a2.798 2.798 0 0 1 1.024-3.816A2.798 2.798 0 0 1 7.28 21.04a2.794 2.794 0 0 1-4.84 2.792zM24.728 10.96a2.798 2.798 0 0 1 1.024-3.816 2.798 2.798 0 0 1 3.816 1.024 2.798 2.798 0 0 1-1.024 3.816 2.796 2.796 0 0 1-3.816-1.024zM16 31.664c-1.544 0-2.792-1.248-2.792-2.792S14.456 26.08 16 26.08s2.792 1.248 2.792 2.792A2.795 2.795 0 0 1 16 31.664zM16 5.92c-1.544 0-2.792-1.248-2.792-2.792S14.456.336 16 .336s2.792 1.248 2.792 2.792S17.544 5.92 16 5.92z"/></symbol><symbol id="icon-HTML5" viewBox="0 0 32 32"><path d="M6.775 0h1.444v1.425h1.319V0h1.444v4.313H9.538V2.869H8.219v1.444H6.775V0zm6.1 1.431h-1.269V0h3.981v1.431h-1.269v2.881h-1.444V1.431zM16.219 0h1.506l.925 1.519L19.575 0h1.506v4.313h-1.438V2.175l-.994 1.531h-.025l-.994-1.531v2.138h-1.413V0zm5.575 0h1.444v2.888h2.031v1.425H21.8V0zM4.662 6.287l2.063 23.144L15.987 32l9.281-2.575 2.063-23.137H4.662zm18.369 5.494l-.131 1.438-.056.637H11.981l.262 2.906h10.344l-.069.762-.669 7.475-.044.481-5.819 1.613-5.813-1.613-.4-4.456h2.85l.2 2.262 3.162.856 3.163-.856.331-3.681H9.648l-.7-7.819-.069-.762h14.219l-.069.756z"/><path opacity=".1" d="M16 16.762h-3.756l-.256-2.906H16v-2.838H8.881l.069.762.7 7.819H16zm0 7.375h-.012l-3.162-.856-.2-2.262h-2.85l.4 4.456 5.813 1.619.013-.006z"/></symbol><symbol id="icon-illustrator" viewBox="0 0 32 32"><path opacity=".5" d="M0 .4v31.2h32V.4H0zm1.333 1.333h29.333v28.533H1.333V1.733z"/><path d="M13.2 9.64c-.28 1.56-.987 4.2-1.547 6.267h3.16c-.373-1.48-1.253-4.707-1.587-6.267h-.027z"/><path d="M1.333 1.733v28.533h29.333V1.733H1.333zM18.88 22.2h-2.213c-.107 0-.173-.027-.2-.12l-1.107-4.013h-4.253l-1.053 4c-.027.107-.067.133-.2.133h-1.96c-.133 0-.16-.04-.133-.2l3.787-13.253c.067-.24.107-.453.133-1.107 0-.093.04-.133.107-.133h2.8c.093 0 .133.027.16.133l4.24 14.387c.027.107 0 .173-.107.173zm4.507-.16c0 .107-.027.16-.16.16H21.16c-.133 0-.173-.067-.173-.173V11.52h-.013c0-.107.04-.16.16-.16h2.093c.107 0 .16.04.16.16v10.52zm-1.24-12.187c-.773 0-1.333-.48-1.333-1.36 0-.853.6-1.36 1.36-1.36.813 0 1.36.547 1.36 1.36 0 .88-.573 1.36-1.387 1.36z"/></symbol><symbol id="icon-JQuery" viewBox="0 0 32 32"><path d="M10.6 26.6zm1.1 1.6zm0 1.2zm.3-1.2zm-.2 1.1zm5.3-4.4l-.5 2.2.5-2.2zm-1.2 0zm1.1-.1h-1c-.1 0-.1 0-.1.1l-.7 3.3c0 .1-.1.1-.1.1h-.7c-.7 0-.6-.5-.5-1.1v-.7l.3-1.6c0-.1 0-.1-.1-.1h-1c-.1 0-.1 0-.1.1l-.4 2.1v.1c-.3 1.1-.2 2.2 1.2 2.3H16c.1 0 .1 0 .1-.1l.9-4.5c.1 0 0 0 0 0zm3.7 4.6h-1.8 1.8zm-2.4-1.7c0-.1.1-.1.1-.1h-.1c-.1.5 0 .1 0 .1zm.7 1.7zm1.9-1.1c.1 0 .1 0 0 0zm-1.5 1.1zm-.2 0zm-.1 0zm.1 0c-.1 0 0 0 0 0zm.2 0h-.2.2zm1.3 0h-1.3 1.3zm.1-.1zm-1.7.1zm-.1 0zM4.5 27.7l-.2.9.1-.7c.1-.1.1-.2.1-.2zm1.9-2.9H5.3c-.1 0-.1 0-.1.1l-.2.9c0 .1 0 .1.1.1h1.1c.1 0 .1 0 .1-.1l.1-1c.1 0 0 0 0 0zm-.3 1.5zm-1.3 0z"/><path d="M6.1 26.2H5c-.1 0-.1 0-.1.1l-.3 1.4v.2l-.3 1.4c0 .1 0 .1-.1.2 0 0-.2.6-.5.6h-.3c-.1 0-.1 0-.1.1l-.2 1c0 .1 0 .1.1.1h.9c.9 0 1.3-.5 1.6-1.8l.3-1.6.1-1.7c0 .1 0 0 0 0zm15.5 3.2s0-.1 0 0zm1.2-.1zm-1.2 0v-.1l.4-1.8-.4 1.9s0 .1 0 0h.2c-.1.1-.2 0-.2 0zm1.1 0h-.2.2c0 .1.1 0 0 0l.1-.2c0 .1 0 .2-.1.2zm.3-.9zm3.2-2.7v.2c0 .1 0 .1-.1.1l.1-.3zm-3.4 3.5zm3.4-3.7zm-3.1 2.2v-.2l.2-.7-.2.9zm-.7-2.4v.2l-.4 1.8.4-2z"/><path d="M26.3 25.8v-.5c-.1-.3-.3-.5-.9-.5h-2.6c-.1 0-.1 0-.1.1l-.1.5-.6 1.9-.4 1.8v.1s.1.1.2.1h1s.1-.1.1-.2l.3-1.5v-.1l.2-.8.2-.7c0-.1.1-.1.1-.1h2.6c-.1 0 0 0 0-.1z"/><path d="M29.6 24.1h-1c-.1 0-.1 0-.2.1l-1.8 2.7h-.1l-.1-.6c0-.1-.1-.1-.1-.1h-1.2c-.1 0-.1 0-.1.1l.5 1.9v.2l-.2.9c0 .1 0 .1.1.1h1.2c.1 0 .1 0 .1-.1l.2-.9c0-.1.1-.1.1-.2l3-4v-.1h-.4zm-9.4 2.4c0 .1-.1.1-.1.1h-1.5c-.1 0-.1 0-.1-.1.1-.4.4-.6 1-.6.6-.1.7.2.7.6zm-.4-1.8c-1.9 0-2.4 1.2-2.6 2.4-.3 1.2-.2 2.3 1.8 2.3h1.7c.1 0 .1 0 .1-.1l.1-.4v-.1l.1-.5c0-.1 0-.1-.1-.1h-1.8c-.7 0-.9-.2-.8-.7h2.9s.1 0 .1-.1c.4-1.6.3-2.7-1.5-2.7zm-9.1 1.8l-.2.9-.2.8c0 .1-.1.1-.1.1H8.9c-.9 0-1.1-.7-.9-1.7s.6-1.7 1.5-1.7c1.2-.2 1.4.6 1.2 1.6zm.7 1.6s.5-1.3.7-2.1c.2-1-.3-2.5-2.3-2.5-1.9 0-2.8 1.4-3.1 2.9s.1 2.9 2 2.9h3c.1 0 .1 0 .1-.1l.3-.9c0-.1 0-.1-.1-.1l-.6-.1c.1.1 0 .1 0 0z"/><path d="M21.1 27.3c-.1.1-.1 0-.1 0 0-.1 0-.1.1 0 0-.1 0-.1 0 0zM5.3 5.6c-2.1 3-1.8 7-.2 10.2 0 .1.1.2.1.2l.1.1v.1c0 .1.1.1.1.1.1.1.1.2.2.3l.1.1c.1.1.1.2.2.3l.1.1c.1.1.2.3.3.4s0 0 0 .1c.1.1.2.2.2.3l.1.1c.1.1.1.2.2.3l.1.1.3.3.3.3.1.1.2.2.1.1.3.3.1.1.3.3.1.1c.1.1.2.1.3.2l.1.1c.1.1.2.1.3.2l.1.1c.1.2.2.2.3.3l.1.1c.1.1.3.2.4.3 0 0 .1 0 .1.1.1.1.2.1.3.2.1 0 .1.1.2.1s.2.1.2.1h.2c.1.1.2.1.4.2h.1c.1.1.3.1.4.2h.1c.1.1.3.1.4.1h.1c.1.1.3.1.5.1h.1c.2 0 .3.1.5.1 10.2 2 13.1-6 13.1-6-2.5 3.2-6.9 4.1-11.1 3.1-.2 0-.3-.1-.5-.1h-.1c-.1 0-.3-.1-.5-.1h-.1c-.1 0-.3-.1-.4-.1h-.1c-.1-.1-.3-.1-.4-.2h-.1c-.1-.1-.2-.1-.4-.2 0 0-.1 0-.1-.1-.1 0-.2-.1-.3-.1s-.1-.1-.2-.1-.2-.1-.3-.2c0 0-.1 0-.1-.1-.1-.1-.3-.2-.4-.3l-.1-.1c-.1-.1-.2-.1-.3-.2 0 0-.1 0-.1-.1-.1-.1-.2-.1-.3-.2l-.1-.1c-.1-.1-.2-.1-.3-.2l-.1-.1-.3-.3-.3-.3-.1-.1c-.1-.1-.2-.2-.3-.2l-.1-.1-.3-.3c-.1-.1-.2-.2-.3-.4l-.1-.1c-.1-.1-.1-.2-.2-.3l-.1-.1-.3-.3C5.9 11.4 5.1 7.1 7 3.5L5.3 5.6z"/><path d="M11.8 3c-1.5 2.2-1.4 5.1-.3 7.5.2.4.4.8.7 1.1.2.3.5.7.8 1 .1.1.2.2.3.4l.1.1.3.3c.1.1.3.2.4.3 0 0 .1 0 .1.1.1.1.3.2.4.3.1 0 .1.1.2.1 0 0 .1 0 .1.1.1.1.2.1.3.2.1.1.2.1.3.2 0 0 .1 0 .1.1.1 0 .1.1.2.1.1.1.3.1.4.2h.1c.1 0 .2.1.3.1 0 0 .1 0 .1.1.1 0 .2.1.3.1h.1c.1 0 .3.1.4.1 7.9 1.3 9.7-4.8 9.7-4.8-1.6 2.4-4.8 3.5-8.2 2.6-.1 0-.3-.1-.4-.1h-.1c-.1 0-.2-.1-.3-.1 0 0-.1 0-.1-.1-.1 0-.2-.1-.3-.1h-.1c-.1-.1-.3-.1-.4-.2-.1 0-.1-.1-.2-.1 0 0-.1 0-.1-.1-.1 0-.2-.1-.3-.1h-.1c-.1-.1-.2-.1-.3-.2 0 0-.1 0-.1-.1-.1 0-.1-.1-.2-.1-.1-.1-.3-.2-.4-.3l-.1-.1C14 10.4 12.8 8.8 12.3 7c-.6-1.9-.5-4 .6-5.7L11.8 3z"/><path d="M17.4 1.1c-.9 1.3-1 3-.4 4.4.7 1.5 2 2.8 3.6 3.3.1 0 .1 0 .2.1h.1c.1 0 .2.1.3.1 4.4.8 5.5-2.2 5.8-2.7-1 1.5-2.8 1.8-4.9 1.3-.2 0-.4-.1-.5-.2l-.6-.3c-.4-.2-.7-.4-1.1-.7-1.9-1.2-3.1-4-1.9-6.2l-.6.9zM12.1 31l-.3.7h-.4V31l-.3.7h-.3v-.9h.2v.7l.3-.7h.3v.7l.3-.7h.2v.2zm.6.2c0-.1 0-.2-.1-.2h-.1l-.2.6h-.2l.2-.8v-.1h.2v.1s.1-.1.2-.1c.2 0 .2.2.2.4l-.2.1zm.7-.5c-.1 0-.1 0-.1-.1s.1-.1.2-.1.1 0 .1.1-.1.1-.2.1zm-.1 1h-.2v-.4l.1-.3H13v-.2h.4l-.1.9zm.8-.7h-.3l-.1.3c0 .1 0 .1.1.1h.2v.2h-.2c-.3 0-.3-.1-.2-.4l.1-.3h-.1v-.2h.1l.1-.2h.2l-.1.2h.3c0 .1-.1.3-.1.3zm.6 0c-.1 0-.2.1-.2.2h.3c0-.1 0-.2-.1-.2zm-.3.3c0 .1 0 .1.2.1h.4v.2s-.2.1-.4.1c-.4 0-.4-.2-.3-.5.1-.2.1-.5.5-.5s.4.2.3.6h-.7zm1.4.4h-.2v-.4l.1-.7h-.1v-.2h.4l-.2 1.3zm.8-.7c-.1 0-.2.1-.2.2h.3c0-.1 0-.2-.1-.2zm-.3.3c0 .1 0 .1.2.1h.4v.2s-.2.1-.4.1c-.4 0-.4-.2-.3-.5.1-.2.1-.5.5-.5s.4.2.3.6h-.7zm1.6-.3h-.3c-.1 0-.2 0-.2.1h.5v.2c0 .1-.2.3-.4.3-.1 0-.3-.1-.3-.1v-.2h.3c.1 0 .2 0 .2-.1v-.1h-.5v-.2c0-.2.2-.3.5-.3.1 0 .3.1.3.1l-.1.3zm.9 0h-.3c-.1 0-.2 0-.2.1h.5v.2c0 .1-.2.3-.4.3-.1 0-.3-.1-.3-.1v-.2h.3c.1 0 .2 0 .2-.1v-.1h-.5v-.2c0-.2.2-.3.5-.3.1 0 .3.1.3.1l-.1.3zm.2.9h-.2v-.1c-.1 0-.1-.1-.1-.1 0-.1.1-.1.2-.1s.1 0 .1.1v.2zm1.2-.9c-.1 0-.2.1-.2.2s0 .2.1.2h.2l.1-.5c0 .1-.2.1-.2.1zm.3.6v.1h-.2v-.1s-.2.1-.3.1c-.3 0-.3-.2-.2-.5s.2-.5.4-.5c.1 0 .2.1.2.1l.1-.4h.2l-.2 1.2zm.8-.6c-.2 0-.2.1-.3.2 0 .1 0 .2.2.2s.2-.1.3-.2c0-.1-.1-.2-.2-.2zm-.2.7c-.4 0-.4-.2-.3-.5.1-.2.2-.5.5-.5.4 0 .4.2.3.5s-.1.5-.5.5zm2.1 0v-.4c0-.1 0-.2-.1-.2H23v.2l-.1.5h-.2v-.4c0-.1 0-.2-.1-.2h-.1l-.1.7h-.2l.2-.9h.2v.1s.1-.1.2-.1.1 0 .2.1c0 0 .2-.1.3-.1.3 0 .3.2.2.5l-.1.5-.2-.3zm.9-.7c-.2 0-.2.1-.3.2 0 .1 0 .2.2.2s.2-.1.3-.2c0-.1 0-.2-.2-.2zm-.1.7c-.4 0-.4-.2-.3-.5.1-.2.2-.5.5-.5.4 0 .4.2.3.5s-.1.5-.5.5zm1.1-.5c0-.1 0-.2-.1-.2l-.2.6h-.2l.2-.8v-.1h.2v.1s.1-.1.2-.1c.2 0 .2.2.2.4l-.3.1zm.9-.2c-.1 0-.2.1-.2.2h.3c0-.1 0-.2-.1-.2zm-.3.3c0 .1 0 .1.2.1h.4v.2s-.2.1-.4.1c-.4 0-.4-.2-.3-.5.1-.2.1-.5.5-.5s.4.2.3.6h-.7zm.8.4c-.1 0-.1 0-.1-.1s.1-.1.2-.1.1 0 .1.1-.1.1-.2.1z"/></symbol><symbol id="icon-js" viewBox="0 0 32 32"><path d="M0 0v32h32V0H0zm17.4 25c0 3.1-1.8 4.5-4.5 4.5-2.4 0-3.8-1.3-4.5-2.8l2.4-1.5c.5.8.9 1.5 1.9 1.5s1.6-.4 1.6-1.9V14.7h3l.1 10.3zm7.1 4.5c-2.8 0-4.6-1.3-5.5-3.1l2.5-1.4c.6 1 1.5 1.8 3 1.8 1.3 0 2-.6 2-1.5 0-1-.8-1.4-2.2-2l-.7-.3c-2.2-.9-3.6-2.1-3.6-4.5 0-2.3 1.7-4 4.4-4 1.9 0 3.3.7 4.3 2.4l-2.3 1.5c-.5-.9-1.1-1.3-1.9-1.3-.9 0-1.4.6-1.4 1.3 0 .9.6 1.3 1.9 1.8l.8.3c2.5 1.1 4 2.2 4 4.7-.3 2.8-2.4 4.3-5.3 4.3z"/></symbol><symbol id="icon-linux" viewBox="0 0 32 32"><path d="M29.369 26.794a2.327 2.327 0 0 0-.553-.437c-.036-.023-.134-.08-.294-.169s-.288-.167-.384-.232c-.095-.066-.22-.178-.375-.339s-.276-.33-.366-.509c-.089-.178-.176-.419-.259-.723s-.131-.64-.143-1.009c-.167.142-.259.425-.277.848s.072.854.268 1.294c.196.441.491.726.884.857.381.131.687.271.92.419s.381.318.447.509c.065.191-.045.396-.33.616s-.744.437-1.375.652c-.869.297-1.485.55-1.848.759s-.895.604-1.598 1.187c-.476.393-.982.604-1.518.634s-.97-.166-1.303-.589c-.333-.422-.441-1.02-.322-1.795.226-1.488.221-2.649-.017-3.482-.191-.655-.232-1.232-.125-1.732s.273-.791.5-.874c.226-.084.47.095.732.535.023.059.077.176.16.348s.152.295.206.366c.054.072.134.164.241.277s.242.193.402.241c.161.048.348.077.563.089.405.012.767-.072 1.089-.25s.563-.378.723-.598c.16-.22.321-.431.482-.634s.3-.316.42-.34c.131-.023.25-.154.357-.393s.178-.568.214-.991c.036-.423.006-.926-.089-1.509-.179-1.036-.533-2.173-1.063-3.411s-1.122-2.208-1.777-2.911c-1.178-1.25-1.97-2.547-2.375-3.893-.416-1.416-.595-2.69-.535-3.821.06-.81-.116-1.688-.527-2.634S19.569 1.481 18.89.981C18.462.66 17.932.413 17.301.24s-1.262-.253-1.893-.241c-.774 0-1.393.125-1.857.375-.952.512-1.583 1.134-1.893 1.866s-.452 1.634-.429 2.705c.048 2.357.143 4.202.286 5.535-.167.619-.905 1.78-2.214 3.482-.238.238-.47.56-.697.964s-.405.768-.536 1.089c-.131.321-.307.786-.527 1.393s-.378 1.036-.473 1.285c-.083.215-.214.464-.393.75s-.322.565-.429.839a2.78 2.78 0 0 0-.178.928c-.012.262 0 .488.036.678.047.286.137.375.268.268.536-.405 1.208-.167 2.018.714.571.619 1.577 2.059 3.018 4.321.119.202.238.419.357.652s.232.541.339.928c.107.387.152.735.134 1.045s-.155.595-.411.857-.64.428-1.152.5c-.274.036-.604.012-.991-.072s-.878-.22-1.473-.411a24.804 24.804 0 0 0-1.321-.393c-.416-.095-1.009-.217-1.777-.366s-1.271-.259-1.509-.33c-.405-.107-.625-.262-.66-.464-.036-.167.048-.452.25-.857s.304-.697.304-.875c.012-.131.006-.262-.018-.393s-.05-.232-.08-.304c-.03-.071-.08-.178-.152-.322s-.119-.25-.143-.321c-.214-.5-.244-.84-.089-1.018.107-.155.363-.214.768-.178.607.06 1.101-.03 1.482-.268.631-.393.821-1.024.571-1.893 0 .405-.072.708-.214.911s-.393.411-.75.625c-.202.119-.56.19-1.071.215s-.851.107-1.018.25c-.119.107-.181.268-.187.482s.021.431.08.652c.059.22.119.473.178.759s.083.524.071.714c-.012.131-.119.455-.322.973s-.244.914-.125 1.187c.06.131.161.247.304.348s.342.188.598.259c.256.072.491.128.705.169s.512.095.893.16.684.122.911.169c.762.155 1.631.411 2.607.768s1.637.541 1.982.553c.333.012.652-.056.955-.205s.562-.318.777-.509c.214-.191.533-.369.955-.536s.896-.256 1.42-.268c.238-.012.583-.027 1.036-.045s.792-.027 1.018-.027c1.024 0 1.797.006 2.321.018.357.012.637.069.839.17s.333.217.393.348c.059.131.158.283.295.456s.312.312.526.419c.452.214.982.301 1.589.259s1.012-.158 1.214-.348c.333-.321.783-.702 1.348-1.143s1.075-.774 1.527-1c.095-.048.256-.125.482-.232s.416-.199.571-.277c.155-.077.342-.176.562-.295s.399-.229.536-.33.276-.217.419-.348.235-.262.277-.393c.041-.131.056-.265.045-.402s-.083-.279-.215-.428zM19.798 9.536c.036-.024.06-.033.071-.027s.036.03.071.072l.098.116c.03.035.071.083.125.143a.74.74 0 0 0 .428.241c.101.017.179.048.232.089s.093.11.116.205c.024.131.004.25-.062.357s-.152.155-.259.143c-.214-.048-.447-.235-.696-.562s-.292-.586-.125-.777zm-2.214-6.937a.585.585 0 0 0 .107-.187c.024-.072.027-.146.009-.223s-.012-.155.018-.232c.03-.077.098-.122.206-.134.107 0 .25.089.429.268.036.024.092.06.169.107s.131.089.161.125c.03.036.045.066.045.089-.024.059-.077.101-.16.125s-.173.036-.268.036-.149.006-.161.018c-.095.036-.184.089-.268.161s-.149.125-.196.161c-.048.036-.095.036-.143 0-.048-.071-.065-.122-.053-.152s.048-.083.107-.161zM8.942 15.964c.083-.095.143-.172.178-.232s.068-.14.098-.241c.03-.101.057-.176.08-.223s.06-.066.107-.054c.024-.006.041.006.054.036l.018.045v.054a.387.387 0 0 1-.036.152c-.012.024-.024.06-.036.107s-.024.089-.036.125c-.048.119-.122.226-.223.322s-.176.137-.223.125c-.071-.024-.065-.095.018-.214zm11.677 11.017c-.024.381-.104.917-.241 1.607s-.223 1.149-.259 1.375c-.25-.012-.393-.104-.428-.277s0-.396.107-.67c.262-.798.398-1.345.411-1.643.024-.548-.036-.857-.178-.928-.131-.095-.334.084-.607.535-.524.857-1.577 1.375-3.161 1.554-1.428.191-2.416-.024-2.964-.643-.119-.083-.238-.098-.357-.044s-.196.11-.232.169c-.012.024 0 .06.036.107s.092.119.17.214c.077.096.14.191.187.286.464.809.423 1.357-.125 1.642 0-.547-.042-.967-.125-1.258s-.25-.613-.5-.964a8.417 8.417 0 0 1-.518-.794c.357-.036.628-.173.812-.411s.268-.494.25-.768a.986.986 0 0 0-.312-.679c-.107-.107-.661-.562-1.661-1.366s-1.619-1.342-1.857-1.616c-.048-.048-.191-.167-.429-.357s-.387-.357-.447-.5c-.548-1.202-.607-2.19-.179-2.964l.071-.089c.059-.012.065.095.018.322a3.55 3.55 0 0 0-.071 1c.048.75.262 1.309.643 1.678.25.25.423.232.518-.053.072-.095.104-.447.098-1.054s.003-1.017.027-1.232c.095-.678.378-1.518.848-2.517s.842-1.536 1.116-1.607c-.214-.345-.283-.72-.205-1.125s.202-.75.375-1.036c.172-.286.348-.616.527-.991s.268-.711.268-1.009c0-.083.006-.143.018-.178.036-.107.184.024.446.393.5.738.875 1.173 1.125 1.304.262.143.553.137.875-.018s.717-.411 1.187-.768c.47-.357.872-.619 1.205-.785.036-.012.092-.039.17-.081s.137-.071.178-.089a2.123 2.123 0 0 0 .419-.25.257.257 0 0 0 .072-.089.216.216 0 0 0 .018-.08c-.024-.107-.074-.173-.152-.196s-.181-.009-.312.045-.277.125-.437.214-.339.19-.535.304c-.196.113-.396.217-.598.313s-.417.179-.643.25c-.226.071-.44.113-.643.125-.5.012-.899-.119-1.196-.393-.19-.179-.291-.292-.304-.339s.042-.059.161-.036c.643.083 1.113.095 1.411.036.309-.047.726-.184 1.25-.411.107-.048.378-.164.813-.348s.771-.312 1.009-.384c.143-.036.241-.092.295-.17s.071-.149.053-.214a.249.249 0 0 0-.116-.152c-.131-.072-.25-.024-.357.143-.06.107-.185.211-.375.313s-.366.179-.527.232c-.161.053-.366.116-.616.187s-.387.113-.411.125c-.655.202-1.262.292-1.821.268-.262-.012-.473-.051-.634-.116s-.271-.143-.33-.232c-.06-.089-.155-.202-.286-.339s-.28-.253-.447-.348c-.119-.059-.164-.167-.134-.321s.122-.316.277-.482c.012-.012.134-.086.366-.223s.396-.277.491-.42c.107-.167.291-.339.553-.518.012-.048.021-.178.027-.393s-.051-.446-.17-.696c-.119-.25-.28-.375-.482-.375-.286-.012-.488.071-.607.25s-.172.399-.161.661c.012.226.069.425.17.598s.194.259.277.259c.131-.012.172.035.125.143a.481.481 0 0 1-.286.25c-.084.024-.176-.057-.277-.241s-.179-.408-.232-.67a2.52 2.52 0 0 1-.062-.661c.024-.369.122-.723.294-1.062s.42-.503.741-.491c.333.012.601.215.804.607s.298.929.286 1.607c.036.083.128.113.277.089s.345-.027.589-.009c.244.018.419.08.527.187.012 0 .018-.089.018-.268-.214-1.5.315-2.297 1.589-2.393.19.036.351.08.482.134s.271.143.42.268c.149.125.274.306.375.545s.182.536.241.893v.661c0 .381-.078.595-.232.643-.25.083-.428.08-.535-.009s-.096-.247.036-.473c.119-.298.095-.643-.072-1.036s-.47-.571-.91-.536c-.298.012-.512.173-.643.482s-.178.613-.143.911c.036.298.101.452.197.464.071.012.283.107.634.286s.616.286.795.321c.464.095.729.244.794.446s.039.497-.08.884-.155.705-.107.955c.048.262.137.5.268.714s.27.411.419.589c.149.178.324.512.527 1s.387 1.101.553 1.839c.012.012.056.054.134.125s.155.161.232.268c.078.107.17.253.277.437s.223.455.348.813c.125.357.241.768.348 1.232.131.548.199 1.184.205 1.911s.054 1.223.143 1.491c.09.268.319.378.687.33.464-.024.762-.274.893-.75.393-1.381.072-3.036-.964-4.964-.393-.75-.732-1.244-1.018-1.482.417.238.845.684 1.286 1.339s.72 1.268.839 1.839l.098.473c.053.255.083.405.089.447.006.042.03.164.071.366s.062.333.062.393.006.176.018.348.009.306-.009.402c-.018.095-.036.223-.053.384s-.048.315-.089.464l-.134.491c.654.286.982.535.982.75-.25-.202-.607-.336-1.072-.401s-.895-.003-1.294.187-.604.506-.616.946c-.428 0-.732.107-.91.322-.262.309-.399.729-.41 1.259s.032 1.107.134 1.732c.102.625.14 1.062.116 1.312zM13.138 6.286c-.036-.012-.065-.048-.089-.107 0-.107.053-.149.161-.125.072.024.14.113.205.268s.08.333.045.536c0 .036-.018.054-.054.053-.131 0-.179-.119-.143-.357.036-.179-.006-.268-.125-.268zm4.624.286l-.036.053c-.095.059-.142.071-.142.036-.048-.322-.155-.506-.322-.554l-.072-.036c-.084-.072-.042-.113.125-.125.036-.012.089.006.161.053s.137.122.197.223a.677.677 0 0 1 .089.348z"/><path d="M13.602 7.607c0 .072.03.101.089.089.048 0 .098-.057.152-.17s.146-.175.277-.187h-.179c-.226.036-.339.125-.339.268zm1.554-.214c.119-.036.223-.009.313.08s.158.128.205.116c.071-.036.089-.089.053-.161-.095-.155-.286-.167-.571-.036z"/></symbol><symbol id="icon-MacOS" viewBox="0 0 32 32"><path d="M0 10.842h2.176v-5.67c0-1.114.73-1.933 1.779-1.933 1.011 0 1.638.64 1.638 1.664v5.926h2.112V5.12c0-1.114.717-1.882 1.766-1.882 1.062 0 1.664.653 1.664 1.779v5.824h2.176V4.492c0-1.856-1.19-3.085-3.021-3.085-1.331 0-2.432.717-2.88 1.856h-.051c-.346-1.178-1.28-1.856-2.586-1.856-1.254 0-2.24.704-2.637 1.779h-.038v-1.6H-.001v9.254zm18.074-1.498c-.947 0-1.574-.486-1.574-1.242 0-.73.602-1.203 1.651-1.28l2.138-.128v.704c0 1.126-.986 1.946-2.214 1.946zm-.653 1.651c1.19 0 2.355-.614 2.88-1.626h.038v1.472h2.099V4.467c0-1.856-1.498-3.072-3.789-3.072-2.355 0-3.84 1.242-3.93 2.97h2.022c.141-.768.794-1.267 1.83-1.267 1.075 0 1.728.563 1.728 1.523v.666l-2.445.141c-2.253.141-3.52 1.126-3.52 2.765-.013 1.677 1.293 2.803 3.085 2.803zM31.987 4.89c-.154-1.946-1.664-3.494-4.109-3.494-2.688 0-4.442 1.856-4.442 4.826 0 3.008 1.741 4.813 4.454 4.813 2.33 0 3.917-1.357 4.096-3.43h-2.048c-.205 1.05-.922 1.677-2.022 1.677-1.382 0-2.266-1.114-2.266-3.059 0-1.907.883-3.059 2.253-3.059 1.165 0 1.856.742 2.022 1.728h2.061zM8.461 12.582c-5.146 0-8.371 3.507-8.371 9.114s3.226 9.101 8.371 9.101c5.133 0 8.358-3.494 8.358-9.101s-3.226-9.114-8.358-9.114zm0 2.688c3.136 0 5.146 2.496 5.146 6.426 0 3.917-2.01 6.413-5.146 6.413-3.149 0-5.146-2.496-5.146-6.413 0-3.93 1.997-6.426 5.146-6.426zm9.638 10.279c.141 3.251 2.803 5.248 6.861 5.248 4.262 0 6.95-2.099 6.95-5.453 0-2.624-1.51-4.109-5.094-4.928l-2.022-.461c-2.163-.512-3.059-1.203-3.059-2.368 0-1.472 1.344-2.445 3.341-2.445 2.022 0 3.392.986 3.546 2.637h2.995c-.077-3.098-2.637-5.21-6.528-5.21-3.84 0-6.566 2.112-6.566 5.248 0 2.522 1.536 4.083 4.787 4.826l2.291.538c2.227.525 3.123 1.254 3.123 2.534 0 1.472-1.485 2.522-3.61 2.522-2.15 0-3.776-1.062-3.968-2.688H18.1z"/></symbol><symbol id="icon-mongodb" viewBox="0 0 32 32"><path d="M16 2c7.733 0 14 6.267 14 14s-6.267 14-14 14S2 23.733 2 16 8.267 2 16 2zm0-2C7.133 0 0 7.133 0 16s7.133 16 16 16 16-7.133 16-16S24.867 0 16 0z"/><path d="M20.672 6.667s-1.537 1.49-3.196 2.092c-12.302 4.448-7.113 13.118-6.943 13.145 0 0 .691-1.202 1.622-1.886 5.911-4.347 7.113-9.35 7.113-9.35s-1.327 6.022-6.588 9.767c-1.161.826-1.95 2.864-2.282 4.899 0 0 .823-.332 1.178-.423.139-.901.427-1.764.914-2.536 7.353.877 9.76-5.048 10.075-7.113.741-4.878-1.892-8.595-1.892-8.595z"/></symbol><symbol id="icon-nodejs" viewBox="0 0 28 32"><path d="M14.056 31.9c-.399 0-.897-.1-1.196-.299l-3.888-2.293c-.598-.299-.299-.399-.1-.498.797-.299.897-.299 1.794-.797.1-.1.199 0 .299 0l2.991 1.794c.1.1.299.1.399 0l11.564-6.779c.1-.1.199-.199.199-.299V9.271c0-.1-.1-.299-.199-.299L14.255 2.193c-.1-.1-.299-.1-.399 0L2.292 8.972c-.199 0-.199.199-.199.299v13.458c0 .1.1.299.199.299l3.19 1.894c1.695.897 2.791-.1 2.791-1.196V10.467c0-.199.1-.399.399-.399h1.495c.199 0 .399.1.399.399v13.259c0 2.293-1.296 3.688-3.489 3.688-.698 0-1.196 0-2.692-.698l-3.19-1.794c-.698-.498-1.196-1.296-1.196-2.093V9.271c0-.897.498-1.695 1.196-2.093L12.859.399c.698-.399 1.695-.399 2.492 0l11.664 6.779c.797.399 1.196 1.296 1.196 2.093v13.458c0 .897-.498 1.695-1.196 2.093l-11.664 6.779a2.763 2.763 0 0 1-1.296.299zm3.689-9.271c-5.084 0-6.181-2.293-6.181-4.287 0-.199.1-.399.399-.399h1.495c.199 0 .299.1.299.299.199 1.495.897 2.293 3.988 2.293 2.492 0 3.489-.598 3.489-1.894 0-.797-.299-1.296-4.087-1.695-3.19-.299-5.184-.997-5.184-3.489 0-2.393 1.994-3.788 5.284-3.788 3.788 0 5.583 1.296 5.782 4.087 0 .1 0 .199-.1.299s-.1.1-.199.1h-1.495c-.1 0-.299-.1-.299-.299-.399-1.595-1.296-2.093-3.688-2.093-2.692 0-2.991.897-2.991 1.595 0 .897.399 1.097 3.988 1.595s5.284 1.097 5.284 3.688c0 2.592-2.093 3.988-5.782 3.988z"/></symbol><symbol id="icon-photoshop" viewBox="0 0 32 32"><path opacity=".5" d="M0 .4v31.2h32V.4H0zm1.333 1.333h29.333v28.533H1.333V1.733z"/><path d="M12.453 10c-.533 0-1.04.027-1.28.04v5.147c.307.027.547.027 1.08.027 1.56 0 3.027-.547 3.027-2.667 0-1.693-1.053-2.547-2.827-2.547z"/><path d="M1.333 1.733v28.533h29.333V1.733H1.333zM12.2 17.347c-.507 0-.68-.027-1.04-.027v5.12c0 .107-.04.16-.16.16H8.96c-.107 0-.16-.04-.16-.16V8.107c0-.093.187-.16.293-.16.853-.04 2.12-.067 3.44-.067 3.693 0 5.133 2.027 5.133 4.627 0 3.387-2.453 4.84-5.467 4.84zm9.6 5.466c-1.16 0-2.16-.24-2.733-.573-.093-.04-.107-.107-.107-.213v-1.96c0-.133.067-.173.16-.107.84.547 1.8.787 2.68.787 1.053 0 1.493-.44 1.493-1.04 0-.48-.307-.907-1.653-1.6-1.893-.907-2.68-1.827-2.68-3.36 0-1.72 1.347-3.147 3.68-3.147 1.147 0 1.947.173 2.387.373.107.067.133.173.133.267v1.827c0 .107-.067.173-.2.133-.587-.373-1.453-.6-2.32-.6-1.053 0-1.413.533-1.413.973 0 .48.24.813 1.653 1.547 2.093 1.013 2.747 1.987 2.747 3.413 0 2.133-1.627 3.28-3.827 3.28z"/></symbol><symbol id="icon-PHP" viewBox="0 0 32 32"><path d="M5.5 18.2c1 0 1.7-.2 2.2-.5.4-.3.8-1 .9-1.8.2-.8.1-1.3-.2-1.6s-.9-.5-1.8-.5H5.1l-.9 4.4h1.3zm-5 5.5c-.1 0-.1 0-.2-.1s-.1-.1-.1-.2l2.3-11.7c0-.1.1-.2.2-.2h4.9c1.5 0 2.7.4 3.4 1.2s1 2 .7 3.5c-.1.6-.3 1.1-.6 1.6s-.6 1-1.1 1.4c-.5.5-1.1.9-1.8 1.1-.6.2-1.5.3-2.5.3h-2l-.6 2.9c0 .1-.1.2-.2.2H.5zm17.1-3.2c-.1 0-.1 0-.2-.1s-.1-.1-.1-.2l1-5.2c.1-.5.1-.8-.1-1-.1-.1-.3-.2-1.1-.2h-1.8L14 20.3c0 .1-.1.2-.2.2h-2.5c-.1 0-.1 0-.2-.1s-.1-.1-.1-.2l2.3-11.7c0-.1.1-.2.2-.2H16c.1 0 .1 0 .2.1s.1.1.1.2l-.5 2.8h2c1.5 0 2.5.3 3.1.8.6.6.8 1.4.6 2.6l-1.1 5.5c0 .1-.1.2-.2.2h-2.6zm7.9-2.3c1 0 1.7-.2 2.2-.5s.8-1 .9-1.8c.2-.8.1-1.3-.2-1.6s-.9-.5-1.8-.5h-1.5l-.9 4.4h1.3zm-5.1 5.5c-.1 0-.1 0-.2-.1s-.1-.1-.1-.2l2.3-11.7c0-.1.1-.2.2-.2h4.9c1.5 0 2.7.4 3.4 1.2s1 2 .7 3.5c-.1.6-.3 1.1-.6 1.6s-.6 1-1.1 1.4c-.5.5-1.1.9-1.8 1.1-.6.2-1.5.3-2.5.3h-2l-.6 2.9c0 .1-.1.2-.2.2h-2.4z"/></symbol><symbol id="icon-PowerPoint" viewBox="0 0 32 32"><path d="M30.956 26.366zm0 0H18.305v-2.722h9.863v-1.253h-9.863V20.26h9.863v-1.253h-9.863v-3.499c.799.965 1.975 1.57 3.292 1.57 2.396 0 4.329-2.002 4.329-4.45h-4.329v-4.45a4.235 4.235 0 0 0-3.292 1.57V4.794h12.651v21.571zm0-22.68H18.305V.288L.008 3.557v24.754l18.297 3.269v-4.118h12.651c.574 0 1.051-.49 1.051-1.08v-21.6c0-.605-.476-1.094-1.051-1.094z"/><path d="M22.272 7.536v4.45h4.329c0-2.462-1.933-4.45-4.329-4.45z"/><path fill="var(--color2, #fff)" d="M7.751 15.745c.728.058 1.443.202 1.891-.576.336-.59.308-1.656-.084-2.117-.504-.576-1.149-.504-1.807-.389v3.082zm-.056 5.515H5.86V10.748c1.415 0 2.816-.043 4.217.029.364.014.799.302 1.065.59 1.037 1.109 1.037 2.477.729 3.859-.28 1.224-1.051 2.088-2.256 2.39-.602.144-1.247.13-1.933.187l.014 3.456z"/></symbol><symbol id="icon-React" viewBox="0 0 36 32"><path d="M35.845 15.943c0-2.375-2.94-4.636-7.576-5.993 1.018-4.636.565-8.367-1.47-9.498C26.347.113 25.781 0 25.216 0v1.583c.339 0 .565.113.792.226 1.018.565 1.47 2.714 1.131 5.541a89.352 89.352 0 0 0-.339 2.148c-1.47-.339-3.053-.678-4.636-.792-1.018-1.357-2.035-2.601-3.053-3.618 2.375-2.261 4.636-3.392 6.106-3.392V0c-2.035 0-4.636 1.47-7.35 3.958C15.266 1.47 12.666 0 10.63 0v1.583c1.47 0 3.731 1.244 6.106 3.392-1.018 1.131-2.035 2.261-3.053 3.618-1.583.339-3.166.565-4.636.905-.113-.678-.226-1.47-.339-2.148-.339-2.714.113-4.862 1.018-5.541.226-.113.452-.226.792-.226V0c-.565 0-1.131.113-1.696.452-2.035 1.131-2.488 4.862-1.47 9.498-4.41 1.47-7.35 3.618-7.35 5.993s2.94 4.636 7.576 5.993c-1.018 4.636-.565 8.367 1.47 9.498.452.226 1.018.452 1.696.452 2.035 0 4.636-1.47 7.35-3.958 2.714 2.488 5.314 3.845 7.35 3.845.565 0 1.131-.113 1.696-.452 2.035-1.131 2.488-4.862 1.47-9.498 4.297-1.244 7.237-3.505 7.237-5.88zm-9.499-4.862a18.174 18.174 0 0 1-1.018 2.94c-.339-.565-.565-1.131-.905-1.809l-1.018-1.696c1.018.113 2.035.339 2.94.565zm-3.392 7.802a24.084 24.084 0 0 1-1.809 2.827c-1.131.113-2.148.113-3.279.113s-2.261 0-3.279-.113c-.565-.905-1.244-1.809-1.809-2.827-.565-.905-1.018-1.922-1.47-2.94.452-1.018 1.018-1.922 1.47-2.94a24.084 24.084 0 0 1 1.809-2.827h3.392c1.131 0 2.261 0 3.279.113.565.905 1.244 1.809 1.809 2.827.565.905 1.018 1.922 1.47 2.94a35.504 35.504 0 0 1-1.583 2.827zm2.375-.904c.339 1.018.678 1.922 1.018 2.94-.905.226-1.922.452-3.053.565l1.018-1.696c.452-.678.792-1.244 1.018-1.809zm-7.35 7.802a22.066 22.066 0 0 1-2.035-2.375h4.07c-.678.905-1.357 1.583-2.035 2.375zm-5.428-4.297c-1.018-.113-2.035-.339-3.053-.565.226-.905.565-1.922 1.018-2.94.339.565.565 1.131.905 1.809.339.565.678 1.131 1.131 1.696zm5.315-15.265c.678.678 1.357 1.47 2.035 2.375h-4.07c.792-.905 1.47-1.696 2.035-2.375zm-5.315 4.297l-1.018 1.696c-.34.565-.678 1.131-.905 1.809-.339-1.018-.678-1.922-1.018-2.94a17.006 17.006 0 0 1 2.94-.565zM5.88 19.675c-2.601-1.131-4.297-2.601-4.297-3.731s1.696-2.601 4.297-3.731c.678-.226 1.357-.565 2.035-.792a35.312 35.312 0 0 0 1.696 4.41c-.678 1.47-1.244 3.053-1.583 4.41-.792 0-1.47-.339-2.148-.565zm3.957 10.403c-1.018-.565-1.47-2.714-1.131-5.541.113-.678.226-1.357.339-2.148 1.47.339 3.053.565 4.636.792 1.018 1.357 2.035 2.601 3.053 3.618-2.375 2.261-4.636 3.392-6.106 3.392-.339.113-.565.113-.792-.113zm17.301-5.541c.339 2.827-.113 4.975-1.018 5.541-.226.113-.452.226-.792.226-1.47 0-3.731-1.244-6.106-3.392 1.018-1.131 2.035-2.261 3.053-3.618 1.696-.226 3.166-.452 4.636-.792 0 .678.226 1.357.226 2.035zm2.827-4.862c-.678.226-1.357.565-2.035.792a35.312 35.312 0 0 0-1.696-4.41c.678-1.47 1.244-3.053 1.583-4.41.678.226 1.357.452 2.035.792 2.601 1.131 4.297 2.601 4.297 3.731.113.905-1.583 2.375-4.184 3.505z"/><path d="M21.258 15.943c0 1.809-1.47 3.392-3.392 3.392-1.809 0-3.392-1.47-3.392-3.392s1.47-3.392 3.392-3.392c1.922.113 3.392 1.583 3.392 3.392z"/></symbol><symbol id="icon-redux" viewBox="0 0 32 32"><path d="M22.144 21.984c1.184-.128 2.048-1.12 2.016-2.336s-1.056-2.176-2.272-2.176h-.096a2.235 2.235 0 0 0-2.176 2.336c.032.608.288 1.12.64 1.504C18.88 24 16.8 25.984 13.632 27.648c-2.144 1.12-4.352 1.536-6.592 1.248-1.824-.256-3.232-1.056-4.128-2.4-1.28-1.984-1.408-4.128-.32-6.272.768-1.536 1.984-2.656 2.752-3.232-.16-.512-.416-1.408-.512-2.048-5.888 4.256-5.28 9.984-3.488 12.704 1.344 2.016 4.032 3.264 7.04 3.264.8 0 1.632-.096 2.432-.288 5.152-.992 9.088-4.064 11.328-8.64z"/><path d="M29.248 16.96c-3.072-3.616-7.616-5.568-12.768-5.568h-.64c-.352-.736-1.12-1.216-1.984-1.216h-.096a2.235 2.235 0 0 0-2.176 2.336c.032 1.216 1.056 2.176 2.272 2.176h.096a2.257 2.257 0 0 0 1.984-1.376h.704c3.072 0 5.984.896 8.608 2.624 2.016 1.344 3.488 3.072 4.288 5.184.672 1.696.64 3.36-.096 4.768-1.12 2.144-3.04 3.328-5.536 3.328-1.632 0-3.168-.48-3.968-.864a22.773 22.773 0 0 1-1.824 1.472c1.728.8 3.52 1.248 5.216 1.248 3.872 0 6.752-2.144 7.84-4.288 1.184-2.336 1.12-6.368-1.92-9.824z"/><path d="M8.704 22.688c.032 1.216 1.056 2.176 2.272 2.176h.096a2.235 2.235 0 0 0 2.176-2.336c-.032-1.216-1.056-2.176-2.272-2.176h-.096c-.096 0-.192 0-.288.032-1.664-2.752-2.336-5.728-2.112-8.992.16-2.432.96-4.544 2.4-6.272 1.184-1.504 3.424-2.24 4.96-2.272 4.32-.064 6.144 5.28 6.24 7.424.512.128 1.408.416 2.016.608-.48-6.56-4.512-9.984-8.384-9.984-3.648 0-7.008 2.624-8.32 6.528-1.856 5.184-.64 10.144 1.632 14.08-.256.288-.352.736-.32 1.184z"/></symbol><symbol id="icon-Sass" viewBox="0 0 32 32"><path d="M27.549 17.793a6.624 6.624 0 0 0-2.897.672c-.298-.59-.596-1.116-.648-1.501-.058-.45-.128-.724-.058-1.262s.386-1.303.38-1.361-.07-.333-.713-.339-1.198.123-1.262.292-.187.555-.269.952c-.111.584-1.285 2.67-1.957 3.762-.216-.426-.403-.8-.444-1.098-.058-.45-.128-.724-.058-1.262s.386-1.303.38-1.361-.07-.333-.713-.339c-.643-.006-1.198.123-1.262.292s-.134.567-.269.952c-.134.386-1.694 3.867-2.103 4.767-.21.461-.391.829-.52 1.081 0 0-.006.018-.023.047-.111.216-.175.333-.175.333v.006c-.088.158-.181.304-.228.304-.035 0-.099-.421.012-.993.234-1.209.789-3.09.783-3.154 0-.035.105-.362-.362-.532-.456-.169-.619.111-.66.111s-.07.099-.07.099.508-2.115-.97-2.115c-.923 0-2.196 1.011-2.827 1.922-.397.216-1.244.678-2.15 1.174-.345.193-.701.386-1.034.567-.023-.023-.047-.053-.07-.076-1.787-1.91-5.094-3.26-4.954-5.824.053-.935.374-3.388 6.35-6.367 4.919-2.424 8.832-1.752 9.51-.263.97 2.126-2.097 6.075-7.179 6.648-1.939.216-2.956-.532-3.213-.812-.269-.292-.31-.31-.409-.251-.164.088-.058.351 0 .502.152.397.777 1.098 1.834 1.443.935.304 3.207.473 5.958-.59 3.078-1.192 5.485-4.504 4.778-7.279-.707-2.816-5.38-3.744-9.802-2.173-2.629.935-5.479 2.407-7.53 4.323C.269 11.368-.116 13.348.041 14.178c.567 2.944 4.627 4.86 6.25 6.28-.082.047-.158.088-.222.123-.812.403-3.908 2.021-4.679 3.733-.876 1.939.14 3.33.812 3.517 2.085.578 4.229-.461 5.38-2.179s1.011-3.949.479-4.971a.14.14 0 0 0-.023-.035l.637-.374c.415-.245.824-.473 1.174-.66-.199.543-.345 1.192-.415 2.126-.088 1.098.362 2.524.952 3.084.263.245.572.251.771.251.689 0 .999-.572 1.344-1.25.421-.829.8-1.793.8-1.793s-.473 2.605.812 2.605c.467 0 .941-.608 1.151-.917v.006l.035-.058.076-.123v-.012a50.01 50.01 0 0 0 1.233-2.302c.806-1.589 1.583-3.575 1.583-3.575s.07.485.31 1.291c.14.473.432.993.666 1.495a9.852 9.852 0 0 1-.304.409l.006.006c-.152.199-.315.415-.497.625-.637.759-1.396 1.63-1.501 1.881-.123.298-.093.514.14.689.169.128.473.146.783.128a3.583 3.583 0 0 0 1.174-.269c.31-.111.672-.28 1.011-.532.625-.461 1.005-1.122.97-1.992-.018-.479-.175-.958-.368-1.408.058-.082.111-.164.169-.245.987-1.443 1.752-3.026 1.752-3.026s.07.485.31 1.291c.117.409.356.853.567 1.285-.929.754-1.501 1.63-1.706 2.202-.368 1.063-.082 1.542.461 1.653.245.053.596-.064.853-.175a3.876 3.876 0 0 0 1.081-.555c.625-.461 1.227-1.104 1.192-1.974a3.743 3.743 0 0 0-.269-1.168c.789-.327 1.805-.508 3.102-.356 2.781.327 3.33 2.062 3.225 2.792s-.689 1.127-.882 1.25-.257.164-.239.251c.023.128.117.123.28.099.228-.041 1.46-.59 1.513-1.934.088-1.717-1.548-3.593-4.44-3.575zm-21.45 7.232c-.923 1.005-2.208 1.384-2.763 1.063-.596-.345-.362-1.828.771-2.892.689-.648 1.577-1.25 2.167-1.618.134-.082.333-.199.572-.345a2.68 2.68 0 0 1 .064-.035l.14-.088c.415 1.519.018 2.857-.952 3.914zm6.717-4.568c-.321.783-.993 2.786-1.402 2.675-.351-.093-.567-1.612-.07-3.114.251-.754.783-1.653 1.092-2.004.502-.561 1.057-.748 1.192-.52.169.298-.613 2.471-.812 2.962zm5.544 2.652c-.134.07-.263.117-.321.082-.041-.023.058-.117.058-.117s.695-.748.97-1.087c.158-.199.345-.432.543-.695v.076c0 .894-.865 1.495-1.25 1.741zm4.276-.975c-.099-.07-.082-.304.251-1.034.128-.286.432-.765.952-1.227.058.187.099.368.093.537-.006 1.127-.812 1.548-1.297 1.723z"/></symbol><symbol id="icon-webpack" viewBox="0 0 32 32"><path opacity=".7" d="M27.616 23.448l-11.149 6.307v-4.913l6.947-3.821 4.202 2.427zm.763-.691V9.568l-4.081 2.355V20.4l4.081 2.356zm-24.04.691l11.149 6.307v-4.913l-6.947-3.821-4.202 2.427zm-.763-.691V9.568l4.081 2.355V20.4l-4.081 2.356zm.478-14.043l11.434-6.469v4.749l-7.382 4.061-4.052-2.341zm23.847 0L16.467 2.245v4.749l7.382 4.061 4.052-2.341z"/><path d="M15.488 23.725l-6.853-3.768v-7.466l6.853 3.958v7.277zm.979 0l6.853-3.768v-7.466l-6.853 3.958v7.277zM9.098 11.626l6.88-3.784 6.88 3.784-6.88 3.973-6.88-3.973z"/></symbol><symbol id="icon-Windows" viewBox="0 0 32 32"><path d="M14.262 15.282H31.83V-.01L14.262 2.571zm-1.221 0V2.737L.274 4.596v10.685zm0 1.249H.274v10.824l12.767 1.86zm1.221 0v12.878L31.83 31.99V16.531z"/></symbol><symbol id="icon-Word" viewBox="0 0 32 32"><path d="M32 4.6c.1-.8-.6-1.5-1.4-1.4-3.9-.1-7.8 0-11.7 0V.3h-2.2C11.2 1.3 5.6 2.2 0 3.2v25.5c5.6 1 11.1 1.9 16.6 2.9h2.3v-2.9h10.9c.6 0 1.3 0 1.8-.3.4-.7.3-1.5.3-2.2 0-7.2.1-14.4.1-21.6zm-1.1 23h-12v-2.9h9.5v-1.5h-9.5v-1.8h9.5v-1.5h-9.5v-1.8h9.5v-1.5h-9.5v-1.8h9.5v-1.5h-9.5v-1.8h9.5V10h-9.5V8.2h9.5V6.7h-9.5V4.2h12v23.4z"/><path fill="var(--color2, #fff)" d="M7.5 10.7c.7 0 1.4-.1 2.1-.1.5 2.4 1 4.9 1.5 7.4.4-2.5.9-5 1.3-7.6.7 0 1.5-.1 2.2-.1-.8 3.5-1.5 7.1-2.4 10.6-.6.3-1.5 0-2.2 0l-1.5-7.2c-.4 2.4-1 4.7-1.5 7-.7 0-1.4-.1-2.1-.1-.7-3.2-1.4-6.4-1.9-9.6.6 0 1.3-.1 1.9-.1.4 2.3.8 4.6 1.1 7l1.5-7.2z"/></symbol></defs></svg>