<svg aria-hidden="true" style="position: absolute; width: 0; height: 0; overflow: hidden;" version="1.1" xmlns="http://www.w3.org/2000/svg" xmlns:xlink="http://www.w3.org/1999/xlink">
<defs>
<symbol id="icon-socket-io" viewBox="0 0 32 32">
<title>socket-io</title>
<path d="M24.3 2.3c-3.6-2.2-8.2-2.8-12.3-1.8v0c-6.3 1.6-11.2 7.2-11.9 13.6-0.8 6.1 2.3 12.4 7.5 15.5 5.2 3.2 12.1 3.1 17.2-0.3 4.5-2.9 7.3-8.3 7.2-13.7-0.1-5.3-3.1-10.5-7.7-13.3zM16.9 29.6c-7.3 0.7-14.3-5.4-14.5-12.7-0.6-5.9 3.3-11.8 8.9-13.8v0c7.8-3.1 17.4 2.7 18.2 11 1.3 7.6-5 15.3-12.6 15.5z"></path>
<path d="M12.1 15.2c3.5-2.9 6.9-5.8 10.5-8.6-1.9 2.9-3.8 5.7-5.7 8.6-1.6 0-3.2 0-4.8 0v0 0zM15.1 16.8c1.6 0 3.2 0 4.8 0-3.5 2.9-6.9 5.8-10.5 8.6 1.9-2.9 3.8-5.7 5.7-8.6v0 0z"></path>
</symbol>
<symbol id="icon-Excel" viewBox="0 0 32 32">
<title>Excel</title>
<path d="M32 24.3c0-6.3 0-12.6 0-18.9 0-0.6 0-1.3-0.3-1.8-0.6-0.4-1.2-0.3-1.8-0.3-3.6 0-7.3 0-10.9 0 0-1 0-1.9 0-2.9h-2.2c-5.6 0.9-11.2 1.8-16.8 2.8 0 8.5 0 17 0 25.5 5.6 1 11.1 1.9 16.6 2.9h2.3c0-1.1 0-2.2 0-3.3 3.8 0 7.5 0 11.3 0 0.6 0 1.5-0.1 1.7-0.8 0.2-1.1 0.1-2.1 0.1-3.2zM30.9 27.2c-4 0-8 0-12 0 0-0.7 0-1.5 0-2.2 1 0 1.9 0 2.9 0 0-0.8 0-1.7 0-2.6-1 0-1.9 0-2.9 0 0-0.5 0-1 0-1.5 1 0 1.9 0 2.9 0 0-0.8 0-1.7 0-2.6-1 0-1.9 0-2.9 0 0-0.5 0-1 0-1.5 1 0 1.9 0 2.9 0 0-0.8 0-1.7 0-2.6-1 0-1.9 0-2.9 0 0-0.5 0-1 0-1.5 1 0 1.9 0 2.9 0 0-0.8 0-1.7 0-2.6-1 0-1.9 0-2.9 0 0-0.5 0-1 0-1.5 1 0 1.9 0 2.9 0 0-0.8 0-1.7 0-2.6-1 0-1.9 0-2.9 0 0-0.7 0-1.4 0-2.1v0c4 0 8 0 12 0 0 8.1 0 15.7 0 23.3z"></path>
<path d="M23.3 6.5c1.7 0 3.4 0 5.1 0 0 0.8 0 1.7 0 2.6-1.7 0-3.4 0-5.1 0 0-0.9 0-1.8 0-2.6z"></path>
<path fill="#fff" style="fill: var(--color2, #fff)" d="M10.8 9.9c0.8-0.1 1.7-0.1 2.5-0.1-1 2-1.9 4-2.9 6 1 2 2 4 3 6.1-0.9-0.1-1.7-0.1-2.6-0.2-0.6-1.5-1.4-3-1.8-4.6-0.5 1.5-1.2 2.9-1.8 4.3-0.8 0-1.6 0-2.4-0.1 0.9-1.8 1.8-3.7 2.8-5.5-0.9-1.9-1.8-3.8-2.6-5.6 0.8-0.1 1.6-0.1 2.4-0.1 0.6 1.4 1.1 2.8 1.6 4.3 0.5-1.6 1.2-3 1.8-4.5v0z"></path>
<path d="M23.3 10.5c1.7 0 3.4 0 5.1 0 0 0.8 0 1.7 0 2.6-1.7 0-3.4 0-5.1 0 0-0.9 0-1.8 0-2.6z"></path>
<path d="M23.3 14.5c1.7 0 3.4 0 5.1 0 0 0.8 0 1.7 0 2.6-1.7 0-3.4 0-5.1 0 0-0.9 0-1.8 0-2.6z"></path>
<path d="M23.3 18.5c1.7 0 3.4 0 5.1 0 0 0.8 0 1.7 0 2.6-1.7 0-3.4 0-5.1 0 0-0.9 0-1.8 0-2.6z"></path>
<path d="M23.3 22.5c1.7 0 3.4 0 5.1 0 0 0.8 0 1.7 0 2.6-1.7 0-3.4 0-5.1 0 0-0.9 0-1.8 0-2.6z"></path>
</symbol>
<symbol id="icon-git" viewBox="0 0 32 32">
<title>git</title>
<path d="M6.505 12.179c-1.395 0-2.426 0.68-2.426 2.321 0 1.242 0.68 2.098 2.356 2.098 1.418 0 2.379-0.832 2.379-2.145-0.012-1.489-0.867-2.274-2.309-2.274v0zM3.727 23.771c-0.328 0.399-0.656 0.832-0.656 1.336 0 1.008 1.289 1.313 3.059 1.313 1.465 0 3.458-0.105 3.458-1.465 0-0.809-0.961-0.856-2.168-0.938l-3.692-0.246zM11.206 12.261c0.457 0.586 0.938 1.395 0.938 2.555 0 2.801-2.204 4.442-5.38 4.442-0.809 0-1.547-0.105-1.993-0.223l-0.832 1.336 2.473 0.152c4.372 0.281 6.951 0.41 6.951 3.763 0 2.907-2.555 4.548-6.951 4.548-4.571 0-6.318-1.16-6.318-3.153 0-1.137 0.504-1.747 1.395-2.579-0.832-0.352-1.114-0.985-1.114-1.664 0-0.551 0.281-1.067 0.738-1.547s0.961-0.961 1.571-1.512c-1.242-0.61-2.168-1.922-2.168-3.786 0-2.907 1.922-4.9 5.79-4.9 1.090 0 1.747 0.105 2.321 0.258h4.923v2.122l-2.344 0.188z"></path>
<path d="M17.981 7.666c-1.442 0-2.274-0.832-2.274-2.274s0.832-2.227 2.274-2.227c1.465 0 2.297 0.785 2.297 2.227s-0.832 2.274-2.297 2.274zM14.711 22.845v-1.993l1.289-0.176c0.352-0.047 0.399-0.129 0.399-0.504v-7.431c0-0.281-0.070-0.457-0.328-0.527l-1.36-0.481 0.281-2.051h5.228v10.479c0 0.41 0.023 0.457 0.399 0.504l1.289 0.176v1.993l-7.197 0.012z"></path>
<path d="M31.906 21.873c-1.090 0.527-2.673 1.008-4.114 1.008-3.001 0-4.138-1.207-4.138-4.067v-6.623c0-0.152 0-0.258-0.199-0.258h-1.77v-2.239c2.227-0.258 3.106-1.36 3.388-4.114h2.403v3.587c0 0.176 0 0.258 0.199 0.258h3.563v2.532h-3.763v6.037c0 1.489 0.352 2.075 1.723 2.075 0.703 0 1.442-0.176 2.051-0.399l0.656 2.204z"></path>
</symbol>
<symbol id="icon-GraphQL" viewBox="0 0 32 32">
<title>GraphQL</title>
<path d="M3.445 23.548l12.812-22.19 1.15 0.664-12.812 22.19-1.15-0.664z"></path>
<path d="M3.184 21.776h25.624v1.328h-25.624v-1.328z"></path>
<path d="M3.692 22.522l0.664-1.15 12.817 7.4-0.664 1.15-12.817-7.4z"></path>
<path d="M14.825 3.233l0.664-1.15 12.817 7.4-0.664 1.15-12.817-7.4z"></path>
<path d="M3.69 9.479l12.817-7.4 0.664 1.15-12.817 7.4-0.664-1.15z"></path>
<path d="M14.595 2.024l1.15-0.664 12.812 22.19-1.15 0.664-12.812-22.19z"></path>
<path d="M4.2 8.6h1.328v14.8h-1.328v-14.8z"></path>
<path d="M26.472 8.6h1.328v14.8h-1.328v-14.8z"></path>
<path d="M15.698 28.353l11.147-6.436 0.58 1.005-11.147 6.436-0.58-1.005z"></path>
<path d="M29.56 23.832c-0.768 1.336-2.48 1.792-3.816 1.024s-1.792-2.48-1.024-3.816 2.48-1.792 3.816-1.024c1.344 0.776 1.8 2.48 1.024 3.816z"></path>
<path d="M7.272 10.96c-0.768 1.336-2.48 1.792-3.816 1.024s-1.792-2.48-1.024-3.816 2.48-1.792 3.816-1.024c1.336 0.776 1.792 2.48 1.024 3.816z"></path>
<path d="M2.44 23.832c-0.768-1.336-0.312-3.040 1.024-3.816 1.336-0.768 3.040-0.312 3.816 1.024 0.768 1.336 0.312 3.040-1.024 3.816-1.344 0.768-3.048 0.312-3.816-1.024z"></path>
<path d="M24.728 10.96c-0.768-1.336-0.312-3.040 1.024-3.816 1.336-0.768 3.040-0.312 3.816 1.024 0.768 1.336 0.312 3.040-1.024 3.816-1.336 0.768-3.048 0.312-3.816-1.024z"></path>
<path d="M16 31.664c-1.544 0-2.792-1.248-2.792-2.792s1.248-2.792 2.792-2.792 2.792 1.248 2.792 2.792c0 1.536-1.248 2.792-2.792 2.792z"></path>
<path d="M16 5.92c-1.544 0-2.792-1.248-2.792-2.792s1.248-2.792 2.792-2.792 2.792 1.248 2.792 2.792-1.248 2.792-2.792 2.792z"></path>
</symbol>
<symbol id="icon-HTML5" viewBox="0 0 32 32">
<title>HTML5</title>
<path d="M6.775 0h1.444v1.425h1.319v-1.425h1.444v4.313h-1.444v-1.444h-1.319v1.444h-1.444v-4.313z"></path>
<path d="M12.875 1.431h-1.269v-1.431h3.981v1.431h-1.269v2.881h-1.444v-2.881z"></path>
<path d="M16.219 0h1.506l0.925 1.519 0.925-1.519h1.506v4.313h-1.438v-2.138l-0.994 1.531h-0.025l-0.994-1.531v2.138h-1.413v-4.313z"></path>
<path d="M21.794 0h1.444v2.888h2.031v1.425h-3.469v-4.313z"></path>
<path d="M4.662 6.287l2.063 23.144 9.262 2.569 9.281-2.575 2.063-23.137h-22.669zM23.031 11.781l-0.131 1.438-0.056 0.637h-10.863l0.262 2.906h10.344l-0.069 0.762-0.669 7.475-0.044 0.481-5.819 1.613-5.813-1.613-0.4-4.456h2.85l0.2 2.262 3.162 0.856 3.163-0.856 0.331-3.681h-9.831l-0.7-7.819-0.069-0.762h14.219l-0.069 0.756z"></path>
<path opacity="0.1" d="M16 16.762h-3.756l-0.256-2.906h4.012v-2.838h-7.119l0.069 0.762 0.7 7.819h6.35z"></path>
<path opacity="0.1" d="M16 24.137h-0.012l-3.162-0.856-0.2-2.262h-2.85l0.4 4.456 5.813 1.619 0.013-0.006z"></path>
</symbol>
<symbol id="icon-illustrator" viewBox="0 0 32 32">
<title>illustrator</title>
<path opacity="0.5" d="M0 0.4v31.2h32v-31.2h-32zM1.333 1.733h29.333v28.533h-29.333v-28.533z"></path>
<path d="M13.2 9.64c-0.28 1.56-0.987 4.2-1.547 6.267h3.16c-0.373-1.48-1.253-4.707-1.587-6.267h-0.027z"></path>
<path d="M1.333 1.733v28.533h29.333v-28.533h-29.333zM18.88 22.2h-2.213c-0.107 0-0.173-0.027-0.2-0.12l-1.107-4.013h-4.253l-1.053 4c-0.027 0.107-0.067 0.133-0.2 0.133h-1.96c-0.133 0-0.16-0.040-0.133-0.2l3.787-13.253c0.067-0.24 0.107-0.453 0.133-1.107 0-0.093 0.040-0.133 0.107-0.133h2.8c0.093 0 0.133 0.027 0.16 0.133l4.24 14.387c0.027 0.107 0 0.173-0.107 0.173zM23.387 22.040c0 0.107-0.027 0.16-0.16 0.16h-2.067c-0.133 0-0.173-0.067-0.173-0.173v-10.507h-0.013c0-0.107 0.040-0.16 0.16-0.16h2.093c0.107 0 0.16 0.040 0.16 0.16v10.52zM22.147 9.853c-0.773 0-1.333-0.48-1.333-1.36 0-0.853 0.6-1.36 1.36-1.36 0.813 0 1.36 0.547 1.36 1.36 0 0.88-0.573 1.36-1.387 1.36z"></path>
</symbol>
<symbol id="icon-JQuery" viewBox="0 0 32 32">
<title>JQuery</title>
<path d="M10.6 26.6v0 0z"></path>
<path d="M11.7 28.2v0z"></path>
<path d="M11.7 29.4v0 0z"></path>
<path d="M12 28.2v0z"></path>
<path d="M11.8 29.3v0z"></path>
<path d="M17.1 24.9l-0.5 2.2c0 0 0.5-2.2 0.5-2.2z"></path>
<path d="M15.9 24.9v0z"></path>
<path d="M17 24.8h-1c-0.1 0-0.1 0-0.1 0.1l-0.7 3.3c0 0.1-0.1 0.1-0.1 0.1h-0.7c-0.7 0-0.6-0.5-0.5-1.1 0 0 0 0 0 0v-0.1c0 0 0 0 0 0v-0.4c0-0.1 0-0.1 0-0.2l0.3-1.6c0-0.1 0-0.1-0.1-0.1h-1c-0.1 0-0.1 0-0.1 0.1l-0.4 2.1v0.1c-0.3 1.1-0.2 2.2 1.2 2.3 0 0 0 0 0 0h2.2c0.1 0 0.1 0 0.1-0.1l0.9-4.5c0.1 0 0 0 0 0v0 0z"></path>
<path d="M20.7 29.4v0c-0.3 0-1.2 0-1.8 0 0.8 0 1.8 0 1.8 0v0z"></path>
<path d="M18.3 27.7c0-0.1 0.1-0.1 0.1-0.1h-0.1c-0.1 0.5 0 0.1 0 0.1s0 0 0 0z"></path>
<path d="M19 29.4c0 0 0 0 0 0s0 0 0 0z"></path>
<path d="M20.9 28.3c0.1 0 0.1 0 0 0v0z"></path>
<path d="M19.4 29.4v0 0z"></path>
<path d="M19.2 29.4v0z"></path>
<path d="M19.1 29.4c0 0 0 0 0 0s0 0 0 0z"></path>
<path d="M19.2 29.4c0 0 0 0 0 0-0.1 0 0 0 0 0z"></path>
<path d="M19.4 29.4c-0.1 0-0.2 0-0.2 0 0.1 0 0.2 0 0.2 0z"></path>
<path d="M20.7 29.4v0c-0.2 0-0.7 0-1.3 0 0.6 0 1.1 0 1.3 0z"></path>
<path d="M20.8 29.3v0z"></path>
<path d="M19.1 29.4v0z"></path>
<path d="M19 29.4v0z"></path>
<path d="M4.5 27.7v0l-0.2 0.9 0.1-0.7c0.1-0.1 0.1-0.2 0.1-0.2v0 0z"></path>
<path d="M6.4 24.8h-1.1c-0.1 0-0.1 0-0.1 0.1l-0.2 0.9c0 0.1 0 0.1 0.1 0.1h1.1c0.1 0 0.1 0 0.1-0.1l0.1-1c0.1 0 0 0 0 0v0z"></path>
<path d="M6.1 26.3v0 0z"></path>
<path d="M4.8 26.3v0z"></path>
<path d="M6.1 26.2h-1.1c-0.1 0-0.1 0-0.1 0.1l-0.3 1.4c0 0.1 0 0.1 0 0.2l-0.3 1.4c0 0.1 0 0.1-0.1 0.2 0 0-0.2 0.6-0.5 0.6 0 0 0 0 0 0-0.2 0-0.3 0-0.3 0v0c-0.1 0-0.1 0-0.1 0.1l-0.2 1c0 0.1 0 0.1 0.1 0.1 0.2 0 0.6 0 0.9 0 0.9 0 1.3-0.5 1.6-1.8l0.3-1.6 0.1-1.7c0 0.1 0 0 0 0v0 0z"></path>
<path d="M21.6 29.4c0 0 0-0.1 0 0v0z"></path>
<path d="M22.8 29.3v0z"></path>
<path d="M21.6 29.3c0 0 0-0.1 0-0.1l0.4-1.8-0.4 1.9c0 0 0 0.1 0 0h0.2c-0.1 0.1-0.2 0-0.2 0v0 0z"></path>
<path d="M22.7 29.3c0 0-0.1 0-0.2 0h0.2c0 0.1 0.1 0 0 0l0.1-0.2c0 0.1 0 0.2-0.1 0.2v0 0z"></path>
<path d="M23 28.4v0z"></path>
<path d="M26.2 25.7v0.2c0 0.1 0 0.1-0.1 0.1l0.1-0.3z"></path>
<path d="M22.8 29.2v0z"></path>
<path d="M26.2 25.5v0z"></path>
<path d="M23.1 27.7c0-0.1 0-0.1 0-0.2l0.2-0.7-0.2 0.9z"></path>
<path d="M22.4 25.3c0 0.1 0 0.1 0 0.2l-0.4 1.8 0.4-2z"></path>
<path d="M26.3 25.8v-0.5c-0.1-0.3-0.3-0.5-0.9-0.5h-2.6c-0.1 0-0.1 0-0.1 0.1v0l-0.1 0.5-0.6 1.9-0.4 1.8c0 0.1 0 0.1 0 0.1s0.1 0.1 0.2 0.1h0.8c0.1 0 0.1 0 0.2 0 0 0 0.1-0.1 0.1-0.2l0.3-1.5v-0.1l0.2-0.8 0.2-0.7c0-0.1 0.1-0.1 0.1-0.1h2.6c-0.1 0 0 0 0-0.1v0 0z"></path>
<path d="M29.6 24.1c-0.1 0-0.1 0-0.2 0h-0.8c-0.1 0-0.1 0-0.2 0.1l-1.8 2.7c0 0-0.1 0-0.1 0l-0.1-0.6c0-0.1-0.1-0.1-0.1-0.1h-1.2c-0.1 0-0.1 0-0.1 0.1l0.5 1.9c0 0.1 0 0.1 0 0.2l-0.2 0.9c0 0.1 0 0.1 0.1 0.1h1.2c0.1 0 0.1 0 0.1-0.1l0.2-0.9c0-0.1 0.1-0.1 0.1-0.2l3-4c0 0 0-0.1 0-0.1h-0.4z"></path>
<path d="M20.2 26.5v0c0 0.1-0.1 0.1-0.1 0.1h-1.5c-0.1 0-0.1 0-0.1-0.1 0 0 0 0 0 0v0 0c0 0 0 0 0 0 0.1-0.4 0.4-0.6 1-0.6 0.6-0.1 0.7 0.2 0.7 0.6v0 0zM19.8 24.7c-1.9 0-2.4 1.2-2.6 2.4-0.3 1.2-0.2 2.3 1.8 2.3v0c0 0 0 0 0 0h0.1c0 0 0 0 0 0s0 0 0.1 0v0c0.1 0 0.2 0 0.2 0v0c0.5 0 1.1 0 1.3 0 0.1 0 0.1 0 0.1-0.1l0.1-0.4v-0.1l0.1-0.5c0-0.1 0-0.1-0.1-0.1h-1.8c-0.7 0-0.9-0.2-0.8-0.7h2.9c0 0 0.1 0 0.1-0.1 0 0 0 0 0 0v0c0.4-1.6 0.3-2.7-1.5-2.7v0 0z"></path>
<path d="M10.7 26.5v0l-0.2 0.9-0.2 0.8c0 0.1-0.1 0.1-0.1 0.1h-1.3c-0.9 0-1.1-0.7-0.9-1.7s0.6-1.7 1.5-1.7c1.2-0.2 1.4 0.6 1.2 1.6v0 0zM11.4 28.1c0 0 0.5-1.3 0.7-2.1 0.2-1-0.3-2.5-2.3-2.5-1.9 0-2.8 1.4-3.1 2.9s0.1 2.9 2 2.9h3c0.1 0 0.1 0 0.1-0.1l0.3-0.9c0-0.1 0-0.1-0.1-0.1l-0.6-0.1c0.1 0.1 0 0.1 0 0 0 0 0 0 0 0v0 0z"></path>
<path d="M21.1 27.3c0 0 0 0 0 0-0.1 0.1-0.1 0-0.1 0 0-0.1 0-0.1 0.1 0 0-0.1 0-0.1 0 0z"></path>
<path d="M5.3 5.6c-2.1 3-1.8 7-0.2 10.2 0 0.1 0.1 0.2 0.1 0.2s0.1 0.1 0.1 0.1c0 0 0 0.1 0 0.1 0 0.1 0.1 0.1 0.1 0.1 0.1 0.1 0.1 0.2 0.2 0.3 0 0 0.1 0.1 0.1 0.1 0.1 0.1 0.1 0.2 0.2 0.3 0 0 0.1 0.1 0.1 0.1 0.1 0.1 0.2 0.3 0.3 0.4 0 0 0 0 0 0s0 0 0 0.1c0.1 0.1 0.2 0.2 0.2 0.3 0 0 0.1 0.1 0.1 0.1 0.1 0.1 0.1 0.2 0.2 0.3 0 0 0.1 0.1 0.1 0.1 0.1 0.1 0.2 0.2 0.3 0.3v0c0 0 0 0 0 0 0.1 0.1 0.2 0.2 0.3 0.3 0 0 0.1 0.1 0.1 0.1 0.1 0.1 0.2 0.2 0.2 0.2s0.1 0.1 0.1 0.1 0.2 0.2 0.3 0.3c0 0 0 0 0 0s0 0 0.1 0.1 0.2 0.2 0.3 0.3c0 0 0.1 0.1 0.1 0.1 0.1 0.1 0.2 0.1 0.3 0.2 0 0 0.1 0.1 0.1 0.1 0.1 0.1 0.2 0.1 0.3 0.2 0 0 0.1 0.1 0.1 0.1s0 0 0 0c0.1 0.2 0.2 0.2 0.3 0.3 0 0 0.1 0.1 0.1 0.1 0.1 0.1 0.3 0.2 0.4 0.3 0 0 0.1 0 0.1 0.1 0.1 0.1 0.2 0.1 0.3 0.2 0.1 0 0.1 0.1 0.2 0.1s0.2 0.1 0.2 0.1c0 0 0 0 0.1 0 0 0 0.1 0 0.1 0 0.1 0.1 0.2 0.1 0.4 0.2 0 0 0.1 0 0.1 0 0.1 0.1 0.3 0.1 0.4 0.2 0 0 0.1 0 0.1 0 0.1 0.1 0.3 0.1 0.4 0.1 0 0 0 0 0.1 0 0.1 0.1 0.3 0.1 0.5 0.1 0 0 0.1 0 0.1 0 0.2 0 0.3 0.1 0.5 0.1 10.2 2 13.1-6 13.1-6-2.5 3.2-6.9 4.1-11.1 3.1-0.2 0-0.3-0.1-0.5-0.1 0 0-0.1 0-0.1 0-0.1 0-0.3-0.1-0.5-0.1 0 0 0 0-0.1 0s-0.3-0.1-0.4-0.1c0 0-0.1 0-0.1 0-0.1-0.1-0.3-0.1-0.4-0.2 0 0-0.1 0-0.1 0-0.1-0.1-0.2-0.1-0.4-0.2 0 0-0.1 0-0.1-0.1-0.1 0-0.2-0.1-0.3-0.1s-0.1-0.1-0.2-0.1-0.2-0.1-0.3-0.2c0 0-0.1 0-0.1-0.1-0.1-0.1-0.3-0.2-0.4-0.3 0 0-0.1-0.1-0.1-0.1-0.1-0.1-0.2-0.1-0.3-0.2 0 0-0.1 0-0.1-0.1-0.1-0.1-0.2-0.1-0.3-0.2 0 0-0.1-0.1-0.1-0.1-0.1-0.1-0.2-0.1-0.3-0.2 0 0-0.1-0.1-0.1-0.1-0.1-0.1-0.2-0.2-0.3-0.3 0 0 0 0 0 0-0.1-0.1-0.2-0.2-0.3-0.3 0 0-0.1-0.1-0.1-0.1-0.1-0.1-0.2-0.2-0.3-0.2 0 0-0.1-0.1-0.1-0.1-0.1-0.1-0.2-0.2-0.3-0.3 0 0 0 0 0 0-0.1-0.1-0.2-0.2-0.3-0.4 0 0-0.1-0.1-0.1-0.1-0.1-0.1-0.1-0.2-0.2-0.3 0 0-0.1-0.1-0.1-0.1-0.1-0.1-0.2-0.2-0.3-0.3-2.3-3.3-3.1-7.6-1.2-11.2l-1.7 2.1z"></path>
<path d="M11.8 3c-1.5 2.2-1.4 5.1-0.3 7.5 0.2 0.4 0.4 0.8 0.7 1.1 0.2 0.3 0.5 0.7 0.8 1 0.1 0.1 0.2 0.2 0.3 0.4 0 0 0.1 0.1 0.1 0.1 0.1 0.1 0.2 0.2 0.3 0.3 0 0 0 0 0 0s0 0 0 0c0.1 0.1 0.3 0.2 0.4 0.3 0 0 0.1 0 0.1 0.1 0.1 0.1 0.3 0.2 0.4 0.3 0 0 0 0 0 0 0.1 0 0.1 0.1 0.2 0.1 0 0 0.1 0 0.1 0.1 0.1 0.1 0.2 0.1 0.3 0.2 0 0 0 0 0 0 0.1 0.1 0.2 0.1 0.3 0.2 0 0 0.1 0 0.1 0.1 0.1 0 0.1 0.1 0.2 0.1 0 0 0 0 0 0 0.1 0.1 0.3 0.1 0.4 0.2 0 0 0.1 0 0.1 0 0.1 0 0.2 0.1 0.3 0.1 0 0 0.1 0 0.1 0.1 0.1 0 0.2 0.1 0.3 0.1 0 0 0.1 0 0.1 0 0.1 0 0.3 0.1 0.4 0.1 7.9 1.3 9.7-4.8 9.7-4.8-1.6 2.4-4.8 3.5-8.2 2.6-0.1 0-0.3-0.1-0.4-0.1 0 0-0.1 0-0.1 0-0.1 0-0.2-0.1-0.3-0.1 0 0-0.1 0-0.1-0.1-0.1 0-0.2-0.1-0.3-0.1 0 0-0.1 0-0.1 0-0.1-0.1-0.3-0.1-0.4-0.2-0.1 0-0.1-0.1-0.2-0.1 0 0-0.1 0-0.1-0.1-0.1 0-0.2-0.1-0.3-0.1 0 0 0 0-0.1 0-0.1-0.1-0.2-0.1-0.3-0.2 0 0-0.1 0-0.1-0.1-0.1 0-0.1-0.1-0.2-0.1-0.1-0.1-0.3-0.2-0.4-0.3 0 0-0.1-0.1-0.1-0.1-1.5-1.2-2.7-2.8-3.2-4.6-0.6-1.9-0.5-4 0.6-5.7l-1.1 1.7z"></path>
<path d="M17.4 1.1c-0.9 1.3-1 3-0.4 4.4 0.7 1.5 2 2.8 3.6 3.3 0.1 0 0.1 0 0.2 0.1 0 0 0.1 0 0.1 0 0.1 0 0.2 0.1 0.3 0.1 4.4 0.8 5.5-2.2 5.8-2.7-1 1.5-2.8 1.8-4.9 1.3-0.2 0-0.4-0.1-0.5-0.2-0.2-0.1-0.4-0.2-0.6-0.3-0.4-0.2-0.7-0.4-1.1-0.7-1.9-1.2-3.1-4-1.9-6.2l-0.6 0.9z"></path>
<path d="M12.1 31l-0.3 0.7h-0.4v-0.7l-0.3 0.7h-0.3v-0.9h0.2v0.7l0.3-0.7h0.3v0.7l0.3-0.7h0.2v0.2z"></path>
<path d="M12.7 31.2c0-0.1 0-0.2-0.1-0.2h-0.1l-0.2 0.6h-0.2l0.2-0.8v-0.1h0.2v0.1c0 0 0.1-0.1 0.2-0.1 0.2 0 0.2 0.2 0.2 0.4l-0.2 0.1z"></path>
<path d="M13.4 30.7c-0.1 0-0.1 0-0.1-0.1s0.1-0.1 0.2-0.1 0.1 0 0.1 0.1-0.1 0.1-0.2 0.1c0 0 0 0 0 0zM13.3 31.7h-0.2v-0.4l0.1-0.3h-0.2v-0.2h0.4c0 0-0.1 0.9-0.1 0.9z"></path>
<path d="M14.1 31h-0.3l-0.1 0.3c0 0.1 0 0.1 0.1 0.1h0.2v0.2c0 0-0.2 0-0.2 0-0.3 0-0.3-0.1-0.2-0.4l0.1-0.3h-0.1v-0.2h0.1l0.1-0.2h0.2l-0.1 0.2h0.3c0 0.1-0.1 0.3-0.1 0.3z"></path>
<path d="M14.7 31c-0.1 0-0.2 0.1-0.2 0.2h0.3c0-0.1 0-0.2-0.1-0.2v0 0zM14.4 31.3c0 0.1 0 0.1 0.2 0.1h0.4v0.2c0 0-0.2 0.1-0.4 0.1-0.4 0-0.4-0.2-0.3-0.5 0.1-0.2 0.1-0.5 0.5-0.5s0.4 0.2 0.3 0.6h-0.7z"></path>
<path d="M15.8 31.7h-0.2v-0.4l0.1-0.7h-0.1v-0.2h0.4l-0.2 1.3z"></path>
<path d="M16.6 31c-0.1 0-0.2 0.1-0.2 0.2h0.3c0-0.1 0-0.2-0.1-0.2v0 0zM16.3 31.3c0 0.1 0 0.1 0.2 0.1h0.4v0.2c0 0-0.2 0.1-0.4 0.1-0.4 0-0.4-0.2-0.3-0.5 0.1-0.2 0.1-0.5 0.5-0.5s0.4 0.2 0.3 0.6h-0.7z"></path>
<path d="M17.9 31c0 0-0.3 0-0.3 0-0.1 0-0.2 0-0.2 0.1v0h0.5c0 0 0 0.2 0 0.2 0 0.1-0.2 0.3-0.4 0.3-0.1 0-0.3-0.1-0.3-0.1v-0.2h0.3c0.1 0 0.2 0 0.2-0.1v-0.1h-0.5c0 0 0-0.1 0-0.2 0-0.2 0.2-0.3 0.5-0.3 0.1 0 0.3 0.1 0.3 0.1l-0.1 0.3z"></path>
<path d="M18.8 31c0 0-0.3 0-0.3 0-0.1 0-0.2 0-0.2 0.1v0h0.5c0 0 0 0.2 0 0.2 0 0.1-0.2 0.3-0.4 0.3-0.1 0-0.3-0.1-0.3-0.1v-0.2h0.3c0.1 0 0.2 0 0.2-0.1v-0.1h-0.5c0 0 0-0.1 0-0.2 0-0.2 0.2-0.3 0.5-0.3 0.1 0 0.3 0.1 0.3 0.1l-0.1 0.3z"></path>
<path d="M19 31.9h-0.2v-0.1c-0.1 0-0.1-0.1-0.1-0.1 0-0.1 0.1-0.1 0.2-0.1s0.1 0 0.1 0.1v0.2z"></path>
<path d="M20.2 31c-0.1 0-0.2 0.1-0.2 0.2s0 0.2 0.1 0.2h0.2l0.1-0.5c0 0.1-0.2 0.1-0.2 0.1zM20.5 31.6v0.1h-0.2v-0.1c0 0-0.2 0.1-0.3 0.1-0.3 0-0.3-0.2-0.2-0.5s0.2-0.5 0.4-0.5c0.1 0 0.2 0.1 0.2 0.1l0.1-0.4h0.2l-0.2 1.2z"></path>
<path d="M21.3 31c-0.2 0-0.2 0.1-0.3 0.2 0 0.1 0 0.2 0.2 0.2s0.2-0.1 0.3-0.2c0-0.1-0.1-0.2-0.2-0.2v0 0zM21.1 31.7c-0.4 0-0.4-0.2-0.3-0.5 0.1-0.2 0.2-0.5 0.5-0.5 0.4 0 0.4 0.2 0.3 0.5s-0.1 0.5-0.5 0.5z"></path>
<path d="M23.2 31.7v-0.4c0-0.1 0-0.2-0.1-0.2h-0.1c0 0.1 0 0.1 0 0.2l-0.1 0.5h-0.2v-0.4c0-0.1 0-0.2-0.1-0.2h-0.1l-0.1 0.7h-0.2l0.2-0.9h0.2v0.1c0 0 0.1-0.1 0.2-0.1s0.1 0 0.2 0.1c0 0 0.2-0.1 0.3-0.1 0.3 0 0.3 0.2 0.2 0.5l-0.1 0.5-0.2-0.3z"></path>
<path d="M24.1 31c-0.2 0-0.2 0.1-0.3 0.2 0 0.1 0 0.2 0.2 0.2s0.2-0.1 0.3-0.2c0-0.1 0-0.2-0.2-0.2v0zM24 31.7c-0.4 0-0.4-0.2-0.3-0.5 0.1-0.2 0.2-0.5 0.5-0.5 0.4 0 0.4 0.2 0.3 0.5s-0.1 0.5-0.5 0.5z"></path>
<path d="M25.1 31.2c0-0.1 0-0.2-0.1-0.2v0l-0.2 0.6h-0.2l0.2-0.8v-0.1h0.2v0.1c0 0 0.1-0.1 0.2-0.1 0.2 0 0.2 0.2 0.2 0.4l-0.3 0.1z"></path>
<path d="M26 31c-0.1 0-0.2 0.1-0.2 0.2h0.3c0-0.1 0-0.2-0.1-0.2v0 0zM25.7 31.3c0 0.1 0 0.1 0.2 0.1h0.4v0.2c0 0-0.2 0.1-0.4 0.1-0.4 0-0.4-0.2-0.3-0.5 0.1-0.2 0.1-0.5 0.5-0.5s0.4 0.2 0.3 0.6h-0.7z"></path>
<path d="M26.5 31.7c-0.1 0-0.1 0-0.1-0.1s0.1-0.1 0.2-0.1c0.1 0 0.1 0 0.1 0.1s-0.1 0.1-0.2 0.1z"></path>
</symbol>
<symbol id="icon-js" viewBox="0 0 32 32">
<title>js</title>
<path d="M0 0v32h32v-32h-32zM17.4 25c0 3.1-1.8 4.5-4.5 4.5-2.4 0-3.8-1.3-4.5-2.8v0 0 0l2.4-1.5c0.5 0.8 0.9 1.5 1.9 1.5s1.6-0.4 1.6-1.9v-10.1h3l0.1 10.3zM24.5 29.5c-2.8 0-4.6-1.3-5.5-3.1v0l2.5-1.4c0.6 1 1.5 1.8 3 1.8 1.3 0 2-0.6 2-1.5 0-1-0.8-1.4-2.2-2l-0.7-0.3c-2.2-0.9-3.6-2.1-3.6-4.5 0-2.3 1.7-4 4.4-4 1.9 0 3.3 0.7 4.3 2.4l-2.3 1.5c-0.5-0.9-1.1-1.3-1.9-1.3-0.9 0-1.4 0.6-1.4 1.3 0 0.9 0.6 1.3 1.9 1.8l0.8 0.3c2.5 1.1 4 2.2 4 4.7-0.3 2.8-2.4 4.3-5.3 4.3v0z"></path>
</symbol>
<symbol id="icon-linux" viewBox="0 0 32 32">
<title>linux</title>
<path d="M29.369 26.794c-0.131-0.149-0.315-0.294-0.553-0.437-0.036-0.023-0.134-0.080-0.294-0.169s-0.288-0.167-0.384-0.232c-0.095-0.066-0.22-0.178-0.375-0.339s-0.276-0.33-0.366-0.509c-0.089-0.178-0.176-0.419-0.259-0.723s-0.131-0.64-0.143-1.009c-0.167 0.142-0.259 0.425-0.277 0.848s0.072 0.854 0.268 1.294c0.196 0.441 0.491 0.726 0.884 0.857 0.381 0.131 0.687 0.271 0.92 0.419s0.381 0.318 0.447 0.509c0.065 0.191-0.045 0.396-0.33 0.616s-0.744 0.437-1.375 0.652c-0.869 0.297-1.485 0.55-1.848 0.759s-0.895 0.604-1.598 1.187c-0.476 0.393-0.982 0.604-1.518 0.634s-0.97-0.166-1.303-0.589c-0.333-0.422-0.441-1.020-0.322-1.795 0.226-1.488 0.221-2.649-0.017-3.482-0.191-0.655-0.232-1.232-0.125-1.732s0.273-0.791 0.5-0.874c0.226-0.084 0.47 0.095 0.732 0.535 0.023 0.059 0.077 0.176 0.16 0.348s0.152 0.295 0.206 0.366c0.054 0.072 0.134 0.164 0.241 0.277s0.242 0.193 0.402 0.241c0.161 0.048 0.348 0.077 0.563 0.089 0.405 0.012 0.767-0.072 1.089-0.25s0.563-0.378 0.723-0.598c0.16-0.22 0.321-0.431 0.482-0.634s0.3-0.316 0.42-0.34c0.131-0.023 0.25-0.154 0.357-0.393s0.178-0.568 0.214-0.991c0.036-0.423 0.006-0.926-0.089-1.509-0.179-1.036-0.533-2.173-1.063-3.411s-1.122-2.208-1.777-2.911c-1.178-1.25-1.97-2.547-2.375-3.893-0.416-1.416-0.595-2.69-0.535-3.821 0.060-0.81-0.116-1.688-0.527-2.634s-0.955-1.669-1.634-2.169c-0.428-0.321-0.958-0.568-1.589-0.741s-1.262-0.253-1.893-0.241c-0.774 0-1.393 0.125-1.857 0.375-0.952 0.512-1.583 1.134-1.893 1.866s-0.452 1.634-0.429 2.705c0.048 2.357 0.143 4.202 0.286 5.535-0.167 0.619-0.905 1.78-2.214 3.482-0.238 0.238-0.47 0.56-0.697 0.964s-0.405 0.768-0.536 1.089c-0.131 0.321-0.307 0.786-0.527 1.393s-0.378 1.036-0.473 1.285c-0.083 0.215-0.214 0.464-0.393 0.75s-0.322 0.565-0.429 0.839c-0.107 0.274-0.167 0.583-0.178 0.928-0.012 0.262 0 0.488 0.036 0.678 0.047 0.286 0.137 0.375 0.268 0.268 0.536-0.405 1.208-0.167 2.018 0.714 0.571 0.619 1.577 2.059 3.018 4.321 0.119 0.202 0.238 0.419 0.357 0.652s0.232 0.541 0.339 0.928c0.107 0.387 0.152 0.735 0.134 1.045s-0.155 0.595-0.411 0.857c-0.256 0.262-0.64 0.428-1.152 0.5-0.274 0.036-0.604 0.012-0.991-0.072s-0.878-0.22-1.473-0.411c-0.595-0.19-1.036-0.321-1.321-0.393-0.416-0.095-1.009-0.217-1.777-0.366s-1.271-0.259-1.509-0.33c-0.405-0.107-0.625-0.262-0.66-0.464-0.036-0.167 0.048-0.452 0.25-0.857s0.304-0.697 0.304-0.875c0.012-0.131 0.006-0.262-0.018-0.393s-0.050-0.232-0.080-0.304c-0.030-0.071-0.080-0.178-0.152-0.322s-0.119-0.25-0.143-0.321c-0.214-0.5-0.244-0.84-0.089-1.018 0.107-0.155 0.363-0.214 0.768-0.178 0.607 0.060 1.101-0.030 1.482-0.268 0.631-0.393 0.821-1.024 0.571-1.893 0 0.405-0.072 0.708-0.214 0.911s-0.393 0.411-0.75 0.625c-0.202 0.119-0.56 0.19-1.071 0.215s-0.851 0.107-1.018 0.25c-0.119 0.107-0.181 0.268-0.187 0.482s0.021 0.431 0.080 0.652c0.059 0.22 0.119 0.473 0.178 0.759s0.083 0.524 0.071 0.714c-0.012 0.131-0.119 0.455-0.322 0.973s-0.244 0.914-0.125 1.187c0.060 0.131 0.161 0.247 0.304 0.348s0.342 0.188 0.598 0.259c0.256 0.072 0.491 0.128 0.705 0.169s0.512 0.095 0.893 0.16c0.381 0.065 0.684 0.122 0.911 0.169 0.762 0.155 1.631 0.411 2.607 0.768s1.637 0.541 1.982 0.553c0.333 0.012 0.652-0.056 0.955-0.205s0.562-0.318 0.777-0.509c0.214-0.191 0.533-0.369 0.955-0.536s0.896-0.256 1.42-0.268c0.238-0.012 0.583-0.027 1.036-0.045s0.792-0.027 1.018-0.027c1.024 0 1.797 0.006 2.321 0.018 0.357 0.012 0.637 0.069 0.839 0.17s0.333 0.217 0.393 0.348c0.059 0.131 0.158 0.283 0.295 0.456s0.312 0.312 0.526 0.419c0.452 0.214 0.982 0.301 1.589 0.259s1.012-0.158 1.214-0.348c0.333-0.321 0.783-0.702 1.348-1.143s1.075-0.774 1.527-1c0.095-0.048 0.256-0.125 0.482-0.232s0.416-0.199 0.571-0.277c0.155-0.077 0.342-0.176 0.562-0.295s0.399-0.229 0.536-0.33c0.137-0.101 0.276-0.217 0.419-0.348s0.235-0.262 0.277-0.393c0.041-0.131 0.056-0.265 0.045-0.402s-0.083-0.279-0.215-0.428zM19.798 9.536c0.036-0.024 0.060-0.033 0.071-0.027s0.036 0.030 0.071 0.072c0.036 0.042 0.068 0.081 0.098 0.116s0.071 0.083 0.125 0.143c0.053 0.060 0.11 0.107 0.169 0.143 0.072 0.048 0.158 0.081 0.259 0.098s0.179 0.048 0.232 0.089 0.093 0.11 0.116 0.205c0.024 0.131 0.004 0.25-0.062 0.357s-0.152 0.155-0.259 0.143c-0.214-0.048-0.447-0.235-0.696-0.562s-0.292-0.586-0.125-0.777zM17.584 2.599c0.059-0.077 0.095-0.14 0.107-0.187 0.024-0.072 0.027-0.146 0.009-0.223s-0.012-0.155 0.018-0.232c0.030-0.077 0.098-0.122 0.206-0.134 0.107 0 0.25 0.089 0.429 0.268 0.036 0.024 0.092 0.060 0.169 0.107s0.131 0.089 0.161 0.125c0.030 0.036 0.045 0.066 0.045 0.089-0.024 0.059-0.077 0.101-0.16 0.125s-0.173 0.036-0.268 0.036-0.149 0.006-0.161 0.018c-0.095 0.036-0.184 0.089-0.268 0.161s-0.149 0.125-0.196 0.161c-0.048 0.036-0.095 0.036-0.143 0-0.048-0.071-0.065-0.122-0.053-0.152s0.048-0.083 0.107-0.161zM8.942 15.964c0.083-0.095 0.143-0.172 0.178-0.232s0.068-0.14 0.098-0.241c0.030-0.101 0.057-0.176 0.080-0.223s0.060-0.066 0.107-0.054c0.024-0.006 0.041 0.006 0.054 0.036s0.018 0.045 0.018 0.045v0.054c0 0.018-0.003 0.042-0.009 0.072s-0.015 0.057-0.027 0.080c-0.012 0.024-0.024 0.060-0.036 0.107s-0.024 0.089-0.036 0.125c-0.048 0.119-0.122 0.226-0.223 0.322s-0.176 0.137-0.223 0.125c-0.071-0.024-0.065-0.095 0.018-0.214zM20.619 26.981c-0.024 0.381-0.104 0.917-0.241 1.607s-0.223 1.149-0.259 1.375c-0.25-0.012-0.393-0.104-0.428-0.277s0-0.396 0.107-0.67c0.262-0.798 0.398-1.345 0.411-1.643 0.024-0.548-0.036-0.857-0.178-0.928-0.131-0.095-0.334 0.084-0.607 0.535-0.524 0.857-1.577 1.375-3.161 1.554-1.428 0.191-2.416-0.024-2.964-0.643-0.119-0.083-0.238-0.098-0.357-0.044s-0.196 0.11-0.232 0.169c-0.012 0.024 0 0.060 0.036 0.107s0.092 0.119 0.17 0.214c0.077 0.096 0.14 0.191 0.187 0.286 0.464 0.809 0.423 1.357-0.125 1.642 0-0.547-0.042-0.967-0.125-1.258s-0.25-0.613-0.5-0.964c-0.25-0.351-0.422-0.616-0.518-0.794 0.357-0.036 0.628-0.173 0.812-0.411s0.268-0.494 0.25-0.768c-0.018-0.274-0.122-0.5-0.312-0.679-0.107-0.107-0.661-0.562-1.661-1.366s-1.619-1.342-1.857-1.616c-0.048-0.048-0.191-0.167-0.429-0.357s-0.387-0.357-0.447-0.5c-0.548-1.202-0.607-2.19-0.179-2.964l0.071-0.089c0.059-0.012 0.065 0.095 0.018 0.322-0.071 0.333-0.095 0.666-0.071 1 0.048 0.75 0.262 1.309 0.643 1.678 0.25 0.25 0.423 0.232 0.518-0.053 0.072-0.095 0.104-0.447 0.098-1.054s0.003-1.017 0.027-1.232c0.095-0.678 0.378-1.518 0.848-2.517s0.842-1.536 1.116-1.607c-0.214-0.345-0.283-0.72-0.205-1.125s0.202-0.75 0.375-1.036c0.172-0.286 0.348-0.616 0.527-0.991s0.268-0.711 0.268-1.009c0-0.083 0.006-0.143 0.018-0.178 0.036-0.107 0.184 0.024 0.446 0.393 0.5 0.738 0.875 1.173 1.125 1.304 0.262 0.143 0.553 0.137 0.875-0.018s0.717-0.411 1.187-0.768c0.47-0.357 0.872-0.619 1.205-0.785 0.036-0.012 0.092-0.039 0.17-0.081s0.137-0.071 0.178-0.089c0.041-0.018 0.095-0.044 0.161-0.080s0.116-0.065 0.151-0.089c0.036-0.024 0.072-0.051 0.107-0.081s0.059-0.059 0.072-0.089c0.012-0.030 0.018-0.056 0.018-0.080-0.024-0.107-0.074-0.173-0.152-0.196s-0.181-0.009-0.312 0.045c-0.131 0.054-0.277 0.125-0.437 0.214s-0.339 0.19-0.535 0.304c-0.196 0.113-0.396 0.217-0.598 0.313s-0.417 0.179-0.643 0.25c-0.226 0.071-0.44 0.113-0.643 0.125-0.5 0.012-0.899-0.119-1.196-0.393-0.19-0.179-0.291-0.292-0.304-0.339s0.042-0.059 0.161-0.036c0.643 0.083 1.113 0.095 1.411 0.036 0.309-0.047 0.726-0.184 1.25-0.411 0.107-0.048 0.378-0.164 0.813-0.348s0.771-0.312 1.009-0.384c0.143-0.036 0.241-0.092 0.295-0.17s0.071-0.149 0.053-0.214c-0.018-0.065-0.056-0.116-0.116-0.152-0.131-0.072-0.25-0.024-0.357 0.143-0.060 0.107-0.185 0.211-0.375 0.313s-0.366 0.179-0.527 0.232c-0.161 0.053-0.366 0.116-0.616 0.187s-0.387 0.113-0.411 0.125c-0.655 0.202-1.262 0.292-1.821 0.268-0.262-0.012-0.473-0.051-0.634-0.116s-0.271-0.143-0.33-0.232c-0.060-0.089-0.155-0.202-0.286-0.339s-0.28-0.253-0.447-0.348c-0.119-0.059-0.164-0.167-0.134-0.321s0.122-0.316 0.277-0.482c0.012-0.012 0.134-0.086 0.366-0.223s0.396-0.277 0.491-0.42c0.107-0.167 0.291-0.339 0.553-0.518 0.012-0.048 0.021-0.178 0.027-0.393s-0.051-0.446-0.17-0.696c-0.119-0.25-0.28-0.375-0.482-0.375-0.286-0.012-0.488 0.071-0.607 0.25s-0.172 0.399-0.161 0.661c0.012 0.226 0.069 0.425 0.17 0.598s0.194 0.259 0.277 0.259c0.131-0.012 0.172 0.035 0.125 0.143-0.071 0.131-0.167 0.215-0.286 0.25-0.084 0.024-0.176-0.057-0.277-0.241s-0.179-0.408-0.232-0.67c-0.053-0.262-0.075-0.482-0.062-0.661 0.024-0.369 0.122-0.723 0.294-1.062s0.42-0.503 0.741-0.491c0.333 0.012 0.601 0.215 0.804 0.607s0.298 0.929 0.286 1.607c0.036 0.083 0.128 0.113 0.277 0.089s0.345-0.027 0.589-0.009c0.244 0.018 0.419 0.080 0.527 0.187 0.012 0 0.018-0.089 0.018-0.268-0.214-1.5 0.315-2.297 1.589-2.393 0.19 0.036 0.351 0.080 0.482 0.134s0.271 0.143 0.42 0.268c0.149 0.125 0.274 0.306 0.375 0.545s0.182 0.536 0.241 0.893v0.661c0 0.381-0.078 0.595-0.232 0.643-0.25 0.083-0.428 0.080-0.535-0.009s-0.096-0.247 0.036-0.473c0.119-0.298 0.095-0.643-0.072-1.036s-0.47-0.571-0.91-0.536c-0.298 0.012-0.512 0.173-0.643 0.482s-0.178 0.613-0.143 0.911c0.036 0.298 0.101 0.452 0.197 0.464 0.071 0.012 0.283 0.107 0.634 0.286s0.616 0.286 0.795 0.321c0.464 0.095 0.729 0.244 0.794 0.446s0.039 0.497-0.080 0.884c-0.119 0.387-0.155 0.705-0.107 0.955 0.048 0.262 0.137 0.5 0.268 0.714s0.27 0.411 0.419 0.589c0.149 0.178 0.324 0.512 0.527 1s0.387 1.101 0.553 1.839c0.012 0.012 0.056 0.054 0.134 0.125s0.155 0.161 0.232 0.268c0.078 0.107 0.17 0.253 0.277 0.437s0.223 0.455 0.348 0.813c0.125 0.357 0.241 0.768 0.348 1.232 0.131 0.548 0.199 1.184 0.205 1.911s0.054 1.223 0.143 1.491c0.090 0.268 0.319 0.378 0.687 0.33 0.464-0.024 0.762-0.274 0.893-0.75 0.393-1.381 0.072-3.036-0.964-4.964-0.393-0.75-0.732-1.244-1.018-1.482 0.417 0.238 0.845 0.684 1.286 1.339s0.72 1.268 0.839 1.839c0.012 0.060 0.045 0.218 0.098 0.473s0.083 0.405 0.089 0.447c0.006 0.042 0.030 0.164 0.071 0.366s0.062 0.333 0.062 0.393c0 0.060 0.006 0.176 0.018 0.348s0.009 0.306-0.009 0.402c-0.018 0.095-0.036 0.223-0.053 0.384s-0.048 0.315-0.089 0.464c-0.041 0.149-0.086 0.313-0.134 0.491 0.654 0.286 0.982 0.535 0.982 0.75-0.25-0.202-0.607-0.336-1.072-0.401s-0.895-0.003-1.294 0.187-0.604 0.506-0.616 0.946c-0.428 0-0.732 0.107-0.91 0.322-0.262 0.309-0.399 0.729-0.41 1.259s0.032 1.107 0.134 1.732c0.102 0.625 0.14 1.062 0.116 1.312zM13.138 6.286c-0.036-0.012-0.065-0.048-0.089-0.107 0-0.107 0.053-0.149 0.161-0.125 0.072 0.024 0.14 0.113 0.205 0.268s0.080 0.333 0.045 0.536c0 0.036-0.018 0.054-0.054 0.053-0.131 0-0.179-0.119-0.143-0.357 0.036-0.179-0.006-0.268-0.125-0.268zM17.762 6.572l-0.036 0.053c-0.095 0.059-0.142 0.071-0.142 0.036-0.048-0.322-0.155-0.506-0.322-0.554l-0.072-0.036c-0.084-0.072-0.042-0.113 0.125-0.125 0.036-0.012 0.089 0.006 0.161 0.053s0.137 0.122 0.197 0.223c0.059 0.101 0.089 0.217 0.089 0.348z"></path>
<path d="M13.602 7.607c0 0.072 0.030 0.101 0.089 0.089 0.048 0 0.098-0.057 0.152-0.17s0.146-0.175 0.277-0.187v0h-0.179c-0.226 0.036-0.339 0.125-0.339 0.268z"></path>
<path d="M15.156 7.393c0.119-0.036 0.223-0.009 0.313 0.080s0.158 0.128 0.205 0.116c0.071-0.036 0.089-0.089 0.053-0.161-0.095-0.155-0.286-0.167-0.571-0.036z"></path>
</symbol>
<symbol id="icon-MacOS" viewBox="0 0 32 32">
<title>MacOS</title>
<path d="M0 10.842h2.176v-5.67c0-1.114 0.73-1.933 1.779-1.933 1.011 0 1.638 0.64 1.638 1.664v5.926h2.112v-5.709c0-1.114 0.717-1.882 1.766-1.882 1.062 0 1.664 0.653 1.664 1.779v5.824h2.176v-6.349c0-1.856-1.19-3.085-3.021-3.085-1.331 0-2.432 0.717-2.88 1.856h-0.051c-0.346-1.178-1.28-1.856-2.586-1.856-1.254 0-2.24 0.704-2.637 1.779h-0.038v-1.6h-2.099v9.254zM18.074 9.344c-0.947 0-1.574-0.486-1.574-1.242 0-0.73 0.602-1.203 1.651-1.28l2.138-0.128v0.704c0 1.126-0.986 1.946-2.214 1.946v0zM17.421 10.995c1.19 0 2.355-0.614 2.88-1.626h0.038v1.472h2.099v-6.374c0-1.856-1.498-3.072-3.789-3.072-2.355 0-3.84 1.242-3.93 2.97h2.022c0.141-0.768 0.794-1.267 1.83-1.267 1.075 0 1.728 0.563 1.728 1.523v0.666l-2.445 0.141c-2.253 0.141-3.52 1.126-3.52 2.765-0.013 1.677 1.293 2.803 3.085 2.803v0zM31.987 4.89c-0.154-1.946-1.664-3.494-4.109-3.494-2.688 0-4.442 1.856-4.442 4.826 0 3.008 1.741 4.813 4.454 4.813 2.33 0 3.917-1.357 4.096-3.43h-2.048c-0.205 1.050-0.922 1.677-2.022 1.677-1.382 0-2.266-1.114-2.266-3.059 0-1.907 0.883-3.059 2.253-3.059 1.165 0 1.856 0.742 2.022 1.728h2.061zM8.461 12.582c-5.146 0-8.371 3.507-8.371 9.114s3.226 9.101 8.371 9.101c5.133 0 8.358-3.494 8.358-9.101s-3.226-9.114-8.358-9.114zM8.461 15.27c3.136 0 5.146 2.496 5.146 6.426 0 3.917-2.010 6.413-5.146 6.413-3.149 0-5.146-2.496-5.146-6.413 0-3.93 1.997-6.426 5.146-6.426v0zM18.099 25.549c0.141 3.251 2.803 5.248 6.861 5.248 4.262 0 6.95-2.099 6.95-5.453 0-2.624-1.51-4.109-5.094-4.928l-2.022-0.461c-2.163-0.512-3.059-1.203-3.059-2.368 0-1.472 1.344-2.445 3.341-2.445 2.022 0 3.392 0.986 3.546 2.637h2.995c-0.077-3.098-2.637-5.21-6.528-5.21-3.84 0-6.566 2.112-6.566 5.248 0 2.522 1.536 4.083 4.787 4.826l2.291 0.538c2.227 0.525 3.123 1.254 3.123 2.534 0 1.472-1.485 2.522-3.61 2.522-2.15 0-3.776-1.062-3.968-2.688h-3.046z"></path>
</symbol>
<symbol id="icon-mongodb" viewBox="0 0 32 32">
<title>mongodb</title>
<path d="M16 2c7.733 0 14 6.267 14 14s-6.267 14-14 14-14-6.267-14-14 6.267-14 14-14zM16 0c-8.867 0-16 7.133-16 16s7.133 16 16 16c8.867 0 16-7.133 16-16s-7.133-16-16-16v0z"></path>
<path d="M20.672 6.667c0 0-1.537 1.49-3.196 2.092-12.302 4.448-7.113 13.118-6.943 13.145 0 0 0.691-1.202 1.622-1.886 5.911-4.347 7.113-9.35 7.113-9.35s-1.327 6.022-6.588 9.767c-1.161 0.826-1.95 2.864-2.282 4.899 0 0 0.823-0.332 1.178-0.423 0.139-0.901 0.427-1.764 0.914-2.536 7.353 0.877 9.76-5.048 10.075-7.113 0.741-4.878-1.892-8.595-1.892-8.595z"></path>
</symbol>
<symbol id="icon-nodejs" viewBox="0 0 28 32">
<title>nodejs</title>
<path d="M14.056 31.9c-0.399 0-0.897-0.1-1.196-0.299l-3.888-2.293c-0.598-0.299-0.299-0.399-0.1-0.498 0.797-0.299 0.897-0.299 1.794-0.797 0.1-0.1 0.199 0 0.299 0l2.991 1.794c0.1 0.1 0.299 0.1 0.399 0l11.564-6.779c0.1-0.1 0.199-0.199 0.199-0.299v-13.458c0-0.1-0.1-0.299-0.199-0.299l-11.664-6.779c-0.1-0.1-0.299-0.1-0.399 0l-11.564 6.779c-0.199 0-0.199 0.199-0.199 0.299v13.458c0 0.1 0.1 0.299 0.199 0.299l3.19 1.894c1.695 0.897 2.791-0.1 2.791-1.196v-13.259c0-0.199 0.1-0.399 0.399-0.399h1.495c0.199 0 0.399 0.1 0.399 0.399v13.259c0 2.293-1.296 3.688-3.489 3.688-0.698 0-1.196 0-2.692-0.698l-3.19-1.794c-0.698-0.498-1.196-1.296-1.196-2.093v-13.558c0-0.897 0.498-1.695 1.196-2.093l11.664-6.779c0.698-0.399 1.695-0.399 2.492 0l11.664 6.779c0.797 0.399 1.196 1.296 1.196 2.093v13.458c0 0.897-0.498 1.695-1.196 2.093l-11.664 6.779c-0.399 0.199-0.797 0.299-1.296 0.299v0 0zM17.745 22.629c-5.084 0-6.181-2.293-6.181-4.287 0-0.199 0.1-0.399 0.399-0.399h1.495c0.199 0 0.299 0.1 0.299 0.299 0.199 1.495 0.897 2.293 3.988 2.293 2.492 0 3.489-0.598 3.489-1.894 0-0.797-0.299-1.296-4.087-1.695-3.19-0.299-5.184-0.997-5.184-3.489 0-2.393 1.994-3.788 5.284-3.788 3.788 0 5.583 1.296 5.782 4.087 0 0.1 0 0.199-0.1 0.299s-0.1 0.1-0.199 0.1h-1.495c-0.1 0-0.299-0.1-0.299-0.299-0.399-1.595-1.296-2.093-3.688-2.093-2.692 0-2.991 0.897-2.991 1.595 0 0.897 0.399 1.097 3.988 1.595s5.284 1.097 5.284 3.688c0 2.592-2.093 3.988-5.782 3.988v0 0z"></path>
</symbol>
<symbol id="icon-photoshop" viewBox="0 0 32 32">
<title>photoshop</title>
<path opacity="0.5" d="M0 0.4v31.2h32v-31.2h-32zM1.333 1.733h29.333v28.533h-29.333v-28.533z"></path>
<path d="M12.453 10c-0.533 0-1.040 0.027-1.28 0.040v5.147c0.307 0.027 0.547 0.027 1.080 0.027 1.56 0 3.027-0.547 3.027-2.667 0-1.693-1.053-2.547-2.827-2.547z"></path>
<path d="M1.333 1.733v28.533h29.333v-28.533h-29.333zM12.2 17.347c-0.507 0-0.68-0.027-1.040-0.027v5.12c0 0.107-0.040 0.16-0.16 0.16h-2.040c-0.107 0-0.16-0.040-0.16-0.16v-14.333c0-0.093 0.187-0.16 0.293-0.16 0.853-0.040 2.12-0.067 3.44-0.067 3.693 0 5.133 2.027 5.133 4.627 0 3.387-2.453 4.84-5.467 4.84zM21.8 22.813c-1.16 0-2.16-0.24-2.733-0.573-0.093-0.040-0.107-0.107-0.107-0.213v-1.96c0-0.133 0.067-0.173 0.16-0.107 0.84 0.547 1.8 0.787 2.68 0.787 1.053 0 1.493-0.44 1.493-1.040 0-0.48-0.307-0.907-1.653-1.6-1.893-0.907-2.68-1.827-2.68-3.36 0-1.72 1.347-3.147 3.68-3.147 1.147 0 1.947 0.173 2.387 0.373 0.107 0.067 0.133 0.173 0.133 0.267v1.827c0 0.107-0.067 0.173-0.2 0.133-0.587-0.373-1.453-0.6-2.32-0.6-1.053 0-1.413 0.533-1.413 0.973 0 0.48 0.24 0.813 1.653 1.547 2.093 1.013 2.747 1.987 2.747 3.413 0 2.133-1.627 3.28-3.827 3.28z"></path>
</symbol>
<symbol id="icon-PHP" viewBox="0 0 32 32">
<title>PHP</title>
<path d="M5.5 18.2c1 0 1.7-0.2 2.2-0.5 0.4-0.3 0.8-1 0.9-1.8 0.2-0.8 0.1-1.3-0.2-1.6s-0.9-0.5-1.8-0.5h-1.5l-0.9 4.4h1.3zM0.5 23.7c-0.1 0-0.1 0-0.2-0.1s-0.1-0.1-0.1-0.2l2.3-11.7c0-0.1 0.1-0.2 0.2-0.2h4.9c1.5 0 2.7 0.4 3.4 1.2s1 2 0.7 3.5c-0.1 0.6-0.3 1.1-0.6 1.6s-0.6 1-1.1 1.4c-0.5 0.5-1.1 0.9-1.8 1.1-0.6 0.2-1.5 0.3-2.5 0.3h-2l-0.6 2.9c0 0.1-0.1 0.2-0.2 0.2h-2.4z"></path>
<path d="M17.6 20.5c-0.1 0-0.1 0-0.2-0.1s-0.1-0.1-0.1-0.2l1-5.2c0.1-0.5 0.1-0.8-0.1-1-0.1-0.1-0.3-0.2-1.1-0.2h-1.8l-1.3 6.5c0 0.1-0.1 0.2-0.2 0.2h-2.5c-0.1 0-0.1 0-0.2-0.1s-0.1-0.1-0.1-0.2l2.3-11.7c0-0.1 0.1-0.2 0.2-0.2h2.5c0.1 0 0.1 0 0.2 0.1s0.1 0.1 0.1 0.2l-0.5 2.8h2c1.5 0 2.5 0.3 3.1 0.8 0.6 0.6 0.8 1.4 0.6 2.6l-1.1 5.5c0 0.1-0.1 0.2-0.2 0.2h-2.6z"></path>
<path d="M25.5 18.2c1 0 1.7-0.2 2.2-0.5s0.8-1 0.9-1.8c0.2-0.8 0.1-1.3-0.2-1.6s-0.9-0.5-1.8-0.5h-1.5l-0.9 4.4h1.3zM20.4 23.7c-0.1 0-0.1 0-0.2-0.1s-0.1-0.1-0.1-0.2l2.3-11.7c0-0.1 0.1-0.2 0.2-0.2h4.9c1.5 0 2.7 0.4 3.4 1.2s1 2 0.7 3.5c-0.1 0.6-0.3 1.1-0.6 1.6s-0.6 1-1.1 1.4c-0.5 0.5-1.1 0.9-1.8 1.1-0.6 0.2-1.5 0.3-2.5 0.3h-2l-0.6 2.9c0 0.1-0.1 0.2-0.2 0.2h-2.4z"></path>
</symbol>
<symbol id="icon-PowerPoint" viewBox="0 0 32 32">
<title>PowerPoint</title>
<path d="M30.956 26.366v0zM30.956 26.366h-12.651v-2.722h9.863v-1.253h-9.863v-2.131h9.863v-1.253h-9.863v-3.499c0.799 0.965 1.975 1.57 3.292 1.57 2.396 0 4.329-2.002 4.329-4.45h-4.329v-4.45c-1.317 0-2.508 0.605-3.292 1.57v-4.954h12.651v21.571zM30.956 3.686h-12.651v-3.398l-18.297 3.269v24.754l18.297 3.269v-4.118h12.651c0.574 0 1.051-0.49 1.051-1.080v-21.6c0-0.605-0.476-1.094-1.051-1.094z"></path>
<path d="M22.272 7.536v4.45h4.329c0-2.462-1.933-4.45-4.329-4.45z"></path>
<path fill="#fff" style="fill: var(--color2, #fff)" d="M7.751 15.745c0.728 0.058 1.443 0.202 1.891-0.576 0.336-0.59 0.308-1.656-0.084-2.117-0.504-0.576-1.149-0.504-1.807-0.389v3.082zM7.695 21.26h-1.835v-10.512c1.415 0 2.816-0.043 4.217 0.029 0.364 0.014 0.799 0.302 1.065 0.59 1.037 1.109 1.037 2.477 0.729 3.859-0.28 1.224-1.051 2.088-2.256 2.39-0.602 0.144-1.247 0.13-1.933 0.187l0.014 3.456z"></path>
</symbol>
<symbol id="icon-React" viewBox="0 0 36 32">
<title>React</title>
<path d="M35.845 15.943c0-2.375-2.94-4.636-7.576-5.993 1.018-4.636 0.565-8.367-1.47-9.498-0.452-0.339-1.018-0.452-1.583-0.452v1.583c0.339 0 0.565 0.113 0.792 0.226 1.018 0.565 1.47 2.714 1.131 5.541-0.113 0.678-0.226 1.357-0.339 2.148-1.47-0.339-3.053-0.678-4.636-0.792-1.018-1.357-2.035-2.601-3.053-3.618 2.375-2.261 4.636-3.392 6.106-3.392v-1.696c-2.035 0-4.636 1.47-7.35 3.958-2.601-2.488-5.201-3.958-7.237-3.958v1.583c1.47 0 3.731 1.244 6.106 3.392-1.018 1.131-2.035 2.261-3.053 3.618-1.583 0.339-3.166 0.565-4.636 0.905-0.113-0.678-0.226-1.47-0.339-2.148-0.339-2.714 0.113-4.862 1.018-5.541 0.226-0.113 0.452-0.226 0.792-0.226v-1.583c-0.565 0-1.131 0.113-1.696 0.452-2.035 1.131-2.488 4.862-1.47 9.498-4.41 1.47-7.35 3.618-7.35 5.993s2.94 4.636 7.576 5.993c-1.018 4.636-0.565 8.367 1.47 9.498 0.452 0.226 1.018 0.452 1.696 0.452 2.035 0 4.636-1.47 7.35-3.958 2.714 2.488 5.314 3.845 7.35 3.845 0.565 0 1.131-0.113 1.696-0.452 2.035-1.131 2.488-4.862 1.47-9.498 4.297-1.244 7.237-3.505 7.237-5.88v0zM26.346 11.081c-0.226 0.905-0.565 1.922-1.018 2.94-0.339-0.565-0.565-1.131-0.905-1.809-0.339-0.565-0.678-1.131-1.018-1.696 1.018 0.113 2.035 0.339 2.94 0.565v0zM22.954 18.883c-0.565 1.018-1.131 1.922-1.809 2.827-1.131 0.113-2.148 0.113-3.279 0.113s-2.261 0-3.279-0.113c-0.565-0.905-1.244-1.809-1.809-2.827-0.565-0.905-1.018-1.922-1.47-2.94 0.452-1.018 1.018-1.922 1.47-2.94 0.565-1.018 1.131-1.922 1.809-2.827 1.131 0 2.261 0 3.392 0s2.261 0 3.279 0.113c0.565 0.905 1.244 1.809 1.809 2.827 0.565 0.905 1.018 1.922 1.47 2.94-0.452 0.905-1.018 1.922-1.583 2.827zM25.329 17.979c0.339 1.018 0.678 1.922 1.018 2.94-0.905 0.226-1.922 0.452-3.053 0.565 0.339-0.565 0.678-1.131 1.018-1.696 0.452-0.678 0.792-1.244 1.018-1.809zM17.979 25.781c-0.678-0.678-1.357-1.47-2.035-2.375 0.678 0 1.357 0 2.035 0s1.357 0 2.035 0c-0.678 0.905-1.357 1.583-2.035 2.375zM12.551 21.484c-1.018-0.113-2.035-0.339-3.053-0.565 0.226-0.905 0.565-1.922 1.018-2.94 0.339 0.565 0.565 1.131 0.905 1.809 0.339 0.565 0.678 1.131 1.131 1.696v0zM17.866 6.219c0.678 0.678 1.357 1.47 2.035 2.375-0.678 0-1.357 0-2.035 0s-1.357 0-2.035 0c0.792-0.905 1.47-1.696 2.035-2.375zM12.551 10.516c-0.339 0.565-0.678 1.131-1.018 1.696s-0.678 1.131-0.905 1.809c-0.339-1.018-0.678-1.922-1.018-2.94 0.792-0.226 1.809-0.452 2.94-0.565v0zM5.88 19.675c-2.601-1.131-4.297-2.601-4.297-3.731s1.696-2.601 4.297-3.731c0.678-0.226 1.357-0.565 2.035-0.792 0.452 1.47 1.018 2.94 1.696 4.41-0.678 1.47-1.244 3.053-1.583 4.41-0.792 0-1.47-0.339-2.148-0.565zM9.837 30.078c-1.018-0.565-1.47-2.714-1.131-5.541 0.113-0.678 0.226-1.357 0.339-2.148 1.47 0.339 3.053 0.565 4.636 0.792 1.018 1.357 2.035 2.601 3.053 3.618-2.375 2.261-4.636 3.392-6.106 3.392-0.339 0.113-0.565 0.113-0.792-0.113v0zM27.138 24.537c0.339 2.827-0.113 4.975-1.018 5.541-0.226 0.113-0.452 0.226-0.792 0.226-1.47 0-3.731-1.244-6.106-3.392 1.018-1.131 2.035-2.261 3.053-3.618 1.696-0.226 3.166-0.452 4.636-0.792 0 0.678 0.226 1.357 0.226 2.035v0zM29.965 19.675c-0.678 0.226-1.357 0.565-2.035 0.792-0.452-1.47-1.018-2.94-1.696-4.41 0.678-1.47 1.244-3.053 1.583-4.41 0.678 0.226 1.357 0.452 2.035 0.792 2.601 1.131 4.297 2.601 4.297 3.731 0.113 0.905-1.583 2.375-4.184 3.505z"></path>
<path d="M21.258 15.943c0 1.809-1.47 3.392-3.392 3.392-1.809 0-3.392-1.47-3.392-3.392s1.47-3.392 3.392-3.392c1.922 0.113 3.392 1.583 3.392 3.392z"></path>
</symbol>
<symbol id="icon-redux" viewBox="0 0 32 32">
<title>redux</title>
<path d="M22.144 21.984c1.184-0.128 2.048-1.12 2.016-2.336s-1.056-2.176-2.272-2.176h-0.096c-1.248 0.032-2.24 1.088-2.176 2.336 0.032 0.608 0.288 1.12 0.64 1.504-1.376 2.688-3.456 4.672-6.624 6.336-2.144 1.12-4.352 1.536-6.592 1.248-1.824-0.256-3.232-1.056-4.128-2.4-1.28-1.984-1.408-4.128-0.32-6.272 0.768-1.536 1.984-2.656 2.752-3.232-0.16-0.512-0.416-1.408-0.512-2.048-5.888 4.256-5.28 9.984-3.488 12.704 1.344 2.016 4.032 3.264 7.040 3.264 0.8 0 1.632-0.096 2.432-0.288 5.152-0.992 9.088-4.064 11.328-8.64z"></path>
<path d="M29.248 16.96c-3.072-3.616-7.616-5.568-12.768-5.568h-0.64c-0.352-0.736-1.12-1.216-1.984-1.216h-0.096c-1.248 0.032-2.24 1.088-2.176 2.336 0.032 1.216 1.056 2.176 2.272 2.176h0.096c0.896-0.032 1.664-0.608 1.984-1.376h0.704c3.072 0 5.984 0.896 8.608 2.624 2.016 1.344 3.488 3.072 4.288 5.184 0.672 1.696 0.64 3.36-0.096 4.768-1.12 2.144-3.040 3.328-5.536 3.328-1.632 0-3.168-0.48-3.968-0.864-0.448 0.416-1.248 1.056-1.824 1.472 1.728 0.8 3.52 1.248 5.216 1.248 3.872 0 6.752-2.144 7.84-4.288 1.184-2.336 1.12-6.368-1.92-9.824z"></path>
<path d="M8.704 22.688c0.032 1.216 1.056 2.176 2.272 2.176h0.096c1.248-0.032 2.24-1.088 2.176-2.336-0.032-1.216-1.056-2.176-2.272-2.176h-0.096c-0.096 0-0.192 0-0.288 0.032-1.664-2.752-2.336-5.728-2.112-8.992 0.16-2.432 0.96-4.544 2.4-6.272 1.184-1.504 3.424-2.24 4.96-2.272 4.32-0.064 6.144 5.28 6.24 7.424 0.512 0.128 1.408 0.416 2.016 0.608-0.48-6.56-4.512-9.984-8.384-9.984-3.648 0-7.008 2.624-8.32 6.528-1.856 5.184-0.64 10.144 1.632 14.080-0.256 0.288-0.352 0.736-0.32 1.184z"></path>
</symbol>
<symbol id="icon-Sass" viewBox="0 0 32 32">
<title>Sass</title>
<path d="M27.549 17.793c-1.116 0.006-2.085 0.275-2.897 0.672-0.298-0.59-0.596-1.116-0.648-1.501-0.058-0.45-0.128-0.724-0.058-1.262s0.386-1.303 0.38-1.361-0.070-0.333-0.713-0.339-1.198 0.123-1.262 0.292-0.187 0.555-0.269 0.952c-0.111 0.584-1.285 2.67-1.957 3.762-0.216-0.426-0.403-0.8-0.444-1.098-0.058-0.45-0.128-0.724-0.058-1.262s0.386-1.303 0.38-1.361-0.070-0.333-0.713-0.339c-0.643-0.006-1.198 0.123-1.262 0.292s-0.134 0.567-0.269 0.952c-0.134 0.386-1.694 3.867-2.103 4.767-0.21 0.461-0.391 0.829-0.52 1.081v0c0 0-0.006 0.018-0.023 0.047-0.111 0.216-0.175 0.333-0.175 0.333s0 0 0 0.006c-0.088 0.158-0.181 0.304-0.228 0.304-0.035 0-0.099-0.421 0.012-0.993 0.234-1.209 0.789-3.090 0.783-3.154 0-0.035 0.105-0.362-0.362-0.532-0.456-0.169-0.619 0.111-0.66 0.111s-0.070 0.099-0.070 0.099 0.508-2.115-0.97-2.115c-0.923 0-2.196 1.011-2.827 1.922-0.397 0.216-1.244 0.678-2.15 1.174-0.345 0.193-0.701 0.386-1.034 0.567-0.023-0.023-0.047-0.053-0.070-0.076-1.787-1.91-5.094-3.26-4.954-5.824 0.053-0.935 0.374-3.388 6.35-6.367 4.919-2.424 8.832-1.752 9.51-0.263 0.97 2.126-2.097 6.075-7.179 6.648-1.939 0.216-2.956-0.532-3.213-0.812-0.269-0.292-0.31-0.31-0.409-0.251-0.164 0.088-0.058 0.351 0 0.502 0.152 0.397 0.777 1.098 1.834 1.443 0.935 0.304 3.207 0.473 5.958-0.59 3.078-1.192 5.485-4.504 4.778-7.279-0.707-2.816-5.38-3.744-9.802-2.173-2.629 0.935-5.479 2.407-7.53 4.323-2.436 2.278-2.821 4.258-2.664 5.088 0.567 2.944 4.627 4.86 6.25 6.28-0.082 0.047-0.158 0.088-0.222 0.123-0.812 0.403-3.908 2.021-4.679 3.733-0.876 1.939 0.14 3.33 0.812 3.517 2.085 0.578 4.229-0.461 5.38-2.179s1.011-3.949 0.479-4.971c-0.006-0.012-0.012-0.023-0.023-0.035 0.21-0.123 0.426-0.251 0.637-0.374 0.415-0.245 0.824-0.473 1.174-0.66-0.199 0.543-0.345 1.192-0.415 2.126-0.088 1.098 0.362 2.524 0.952 3.084 0.263 0.245 0.572 0.251 0.771 0.251 0.689 0 0.999-0.572 1.344-1.25 0.421-0.829 0.8-1.793 0.8-1.793s-0.473 2.605 0.812 2.605c0.467 0 0.941-0.608 1.151-0.917 0 0.006 0 0.006 0 0.006s0.012-0.018 0.035-0.058c0.047-0.076 0.076-0.123 0.076-0.123s0-0.006 0-0.012c0.187-0.327 0.608-1.069 1.233-2.302 0.806-1.589 1.583-3.575 1.583-3.575s0.070 0.485 0.31 1.291c0.14 0.473 0.432 0.993 0.666 1.495-0.187 0.263-0.304 0.409-0.304 0.409s0 0 0.006 0.006c-0.152 0.199-0.315 0.415-0.497 0.625-0.637 0.759-1.396 1.63-1.501 1.881-0.123 0.298-0.093 0.514 0.14 0.689 0.169 0.128 0.473 0.146 0.783 0.128 0.572-0.041 0.976-0.181 1.174-0.269 0.31-0.111 0.672-0.28 1.011-0.532 0.625-0.461 1.005-1.122 0.97-1.992-0.018-0.479-0.175-0.958-0.368-1.408 0.058-0.082 0.111-0.164 0.169-0.245 0.987-1.443 1.752-3.026 1.752-3.026s0.070 0.485 0.31 1.291c0.117 0.409 0.356 0.853 0.567 1.285-0.929 0.754-1.501 1.63-1.706 2.202-0.368 1.063-0.082 1.542 0.461 1.653 0.245 0.053 0.596-0.064 0.853-0.175 0.327-0.105 0.713-0.286 1.081-0.555 0.625-0.461 1.227-1.104 1.192-1.974-0.018-0.397-0.123-0.789-0.269-1.168 0.789-0.327 1.805-0.508 3.102-0.356 2.781 0.327 3.33 2.062 3.225 2.792s-0.689 1.127-0.882 1.25-0.257 0.164-0.239 0.251c0.023 0.128 0.117 0.123 0.28 0.099 0.228-0.041 1.46-0.59 1.513-1.934 0.088-1.717-1.548-3.593-4.44-3.575zM6.099 25.025c-0.923 1.005-2.208 1.384-2.763 1.063-0.596-0.345-0.362-1.828 0.771-2.892 0.689-0.648 1.577-1.25 2.167-1.618 0.134-0.082 0.333-0.199 0.572-0.345 0.041-0.023 0.064-0.035 0.064-0.035v0c0.047-0.029 0.093-0.058 0.14-0.088 0.415 1.519 0.018 2.857-0.952 3.914zM12.816 20.457c-0.321 0.783-0.993 2.786-1.402 2.675-0.351-0.093-0.567-1.612-0.070-3.114 0.251-0.754 0.783-1.653 1.092-2.004 0.502-0.561 1.057-0.748 1.192-0.52 0.169 0.298-0.613 2.471-0.812 2.962zM18.36 23.109c-0.134 0.070-0.263 0.117-0.321 0.082-0.041-0.023 0.058-0.117 0.058-0.117s0.695-0.748 0.97-1.087c0.158-0.199 0.345-0.432 0.543-0.695 0 0.023 0 0.053 0 0.076 0 0.894-0.865 1.495-1.25 1.741zM22.636 22.134c-0.099-0.070-0.082-0.304 0.251-1.034 0.128-0.286 0.432-0.765 0.952-1.227 0.058 0.187 0.099 0.368 0.093 0.537-0.006 1.127-0.812 1.548-1.297 1.723z"></path>
</symbol>
<symbol id="icon-webpack" viewBox="0 0 32 32">
<title>webpack</title>
<path opacity="0.7" d="M27.616 23.448l-11.149 6.307v-4.913l6.947-3.821 4.202 2.427zM28.379 22.757v-13.189l-4.081 2.355v8.477l4.081 2.356zM4.339 23.448l11.149 6.307v-4.913l-6.947-3.821-4.202 2.427zM3.576 22.757v-13.189l4.081 2.355v8.477l-4.081 2.356zM4.054 8.714l11.434-6.469v4.749l-7.382 4.061-4.052-2.341zM27.901 8.714l-11.434-6.469v4.749l7.382 4.061 4.052-2.341z"></path>
<path d="M15.488 23.725l-6.853-3.768v-7.466l6.853 3.958v7.277zM16.467 23.725l6.853-3.768v-7.466l-6.853 3.958v7.277zM9.098 11.626l6.88-3.784 6.88 3.784-6.88 3.973-6.88-3.973z"></path>
</symbol>
<symbol id="icon-Windows" viewBox="0 0 32 32">
<title>Windows</title>
<path d="M14.262 15.282h17.568v-15.292l-17.568 2.581z"></path>
<path d="M13.041 15.282v-12.545l-12.767 1.859v10.685z"></path>
<path d="M13.041 16.531h-12.767v10.824l12.767 1.86z"></path>
<path d="M14.262 16.531v12.878l17.568 2.581v-15.459z"></path>
</symbol>
<symbol id="icon-Word" viewBox="0 0 32 32">
<title>Word</title>
<path d="M32 4.6c0.1-0.8-0.6-1.5-1.4-1.4-3.9-0.1-7.8 0-11.7 0 0-1 0-1.9 0-2.9h-2.2c-5.5 1-11.1 1.9-16.7 2.9 0 8.5 0 17 0 25.5 5.6 1 11.1 1.9 16.6 2.9h2.3c0-1 0-1.9 0-2.9 3.6 0 7.3 0 10.9 0 0.6 0 1.3 0 1.8-0.3 0.4-0.7 0.3-1.5 0.3-2.2 0-7.2 0.1-14.4 0.1-21.6zM30.9 27.6c-4 0-8 0-12 0 0-1 0-1.9 0-2.9 3.1 0 6.3 0 9.5 0 0-0.5 0-1 0-1.5-3.1 0-6.3 0-9.5 0 0-0.6 0-1.2 0-1.8 3.1 0 6.3 0 9.5 0 0-0.5 0-1 0-1.5-3.1 0-6.3 0-9.5 0 0-0.6 0-1.2 0-1.8 3.1 0 6.3 0 9.5 0 0-0.5 0-1 0-1.5-3.1 0-6.3 0-9.5 0 0-0.6 0-1.2 0-1.8 3.1 0 6.3 0 9.5 0 0-0.5 0-1 0-1.5-3.1 0-6.3 0-9.5 0 0-0.6 0-1.2 0-1.8 3.1 0 6.3 0 9.5 0 0-0.5 0-1 0-1.5-3.1 0-6.3 0-9.5 0 0-0.6 0-1.2 0-1.8 3.1 0 6.3 0 9.5 0 0-0.5 0-1 0-1.5-3.1 0-6.3 0-9.5 0 0-0.8 0-1.6 0-2.5 4 0 8 0 12 0 0 7.9 0 15.6 0 23.4z"></path>
<path fill="#fff" style="fill: var(--color2, #fff)" d="M7.5 10.7c0.7 0 1.4-0.1 2.1-0.1 0.5 2.4 1 4.9 1.5 7.4 0.4-2.5 0.9-5 1.3-7.6 0.7 0 1.5-0.1 2.2-0.1-0.8 3.5-1.5 7.1-2.4 10.6-0.6 0.3-1.5 0-2.2 0-0.5-2.4-1-4.8-1.5-7.2-0.4 2.4-1 4.7-1.5 7-0.7 0-1.4-0.1-2.1-0.1-0.7-3.2-1.4-6.4-1.9-9.6 0.6 0 1.3-0.1 1.9-0.1 0.4 2.3 0.8 4.6 1.1 7 0.5-2.4 1-4.8 1.5-7.2v0z"></path>
</symbol>
</defs>
</svg>
